<svg width="20" height="19" viewBox="0 0 20 19" fill="none" xmlns="http://www.w3.org/2000/svg">
<path d="M19.5833 9.31615C19.5831 7.57636 19.058 5.87308 18.0704 4.40795C17.0828 2.94281 15.674 1.77719 14.0108 1.04906C12.3475 0.32093 10.4995 0.0607931 8.68543 0.299445C6.87139 0.538097 5.16731 1.26554 3.77493 2.39566C2.38255 3.52578 1.36018 5.01125 0.828861 6.67621C0.29754 8.34117 0.279514 10.1159 0.776919 11.7903C1.27432 13.4647 2.26633 14.9686 3.63549 16.124C5.00466 17.2795 6.69365 18.038 8.50251 18.3099V11.9477H6.06959V9.31615H8.50251V7.31007C8.50251 5.02848 9.93334 3.76815 12.1221 3.76815C12.8408 3.77764 13.5579 3.83704 14.2675 3.94588V6.1863H13.0592C12.6951 6.14054 12.3269 6.23395 12.0353 6.446C11.7437 6.65806 11.5527 6.9714 11.5042 7.31719C11.4908 7.41393 11.4888 7.51176 11.4979 7.60892V9.31615H14.1558L13.7308 11.9477H11.4975V18.3099C13.7518 17.9711 15.8049 16.879 17.2872 15.2303C18.7695 13.5816 19.5837 11.4844 19.5833 9.31615Z" fill="white"/>
</svg>
