<svg width="21" height="21" viewBox="0 0 21 21" fill="none" xmlns="http://www.w3.org/2000/svg">
<path d="M10.5 2.01227C13.1867 2.01227 13.5051 2.02269 14.566 2.07084C15.2041 2.07859 15.8362 2.19577 16.4347 2.41728C16.8686 2.58483 17.2627 2.84129 17.5915 3.17018C17.9204 3.49906 18.1769 3.89311 18.3444 4.327C18.5659 4.92552 18.6831 5.5576 18.6909 6.19575C18.739 7.25663 18.7495 7.57503 18.7495 10.2617C18.7495 12.9484 18.739 13.2668 18.6909 14.3277C18.6831 14.9658 18.5659 15.5979 18.3444 16.1964C18.1769 16.6303 17.9204 17.0244 17.5915 17.3533C17.2627 17.6821 16.8686 17.9386 16.4347 18.1062C15.8362 18.3277 15.2041 18.4448 14.566 18.4526C13.5051 18.5007 13.187 18.5112 10.5 18.5112C7.81295 18.5112 7.49491 18.5007 6.43403 18.4526C5.79589 18.4448 5.1638 18.3277 4.56528 18.1062C4.13139 17.9386 3.73734 17.6821 3.40846 17.3533C3.07957 17.0244 2.82311 16.6303 2.65556 16.1964C2.43405 15.5979 2.31687 14.9658 2.30913 14.3277C2.26097 13.2668 2.25055 12.9484 2.25055 10.2617C2.25055 7.57503 2.26097 7.25663 2.30913 6.19575C2.31687 5.5576 2.43405 4.92552 2.65556 4.327C2.82311 3.89311 3.07957 3.49906 3.40846 3.17018C3.73734 2.84129 4.13139 2.58483 4.56528 2.41728C5.1638 2.19577 5.79589 2.07859 6.43403 2.07084C7.49491 2.02269 7.81331 2.01227 10.5 2.01227ZM10.5 0.199219C7.76875 0.199219 7.42447 0.210719 6.35137 0.259594C5.51623 0.276022 4.68993 0.433992 3.90762 0.726781C3.23938 0.985638 2.63255 1.38117 2.12597 1.88806C1.61939 2.39494 1.22423 3.00202 0.965781 3.67042C0.672992 4.45273 0.515022 5.27903 0.498594 6.11417C0.449 7.18619 0.4375 7.53047 0.4375 10.2617C0.4375 12.993 0.449 13.3372 0.497875 14.4103C0.514303 15.2455 0.672273 16.0718 0.965062 16.8541C1.22371 17.5225 1.61908 18.1295 2.12584 18.6362C2.63261 19.143 3.23961 19.5384 3.90798 19.797C4.69029 20.0898 5.51659 20.2478 6.35173 20.2642C7.42447 20.3127 7.76875 20.3242 10.5 20.3242C13.2312 20.3242 13.5755 20.3127 14.6486 20.2638C15.4838 20.2474 16.3101 20.0894 17.0924 19.7967C17.7607 19.538 18.3677 19.1426 18.8745 18.6359C19.3813 18.1291 19.7766 17.5221 20.0353 16.8537C20.3281 16.0714 20.4861 15.2451 20.5025 14.41C20.551 13.3372 20.5625 12.993 20.5625 10.2617C20.5625 7.53047 20.551 7.18619 20.5021 6.11309C20.4857 5.27795 20.3277 4.45165 20.0349 3.66934C19.7761 3.0011 19.3805 2.39427 18.8737 1.88769C18.3668 1.38111 17.7597 0.985949 17.0913 0.7275C16.309 0.43471 15.4827 0.276741 14.6475 0.260313C13.5755 0.210719 13.2312 0.199219 10.5 0.199219Z" fill="white"/>
<path d="M10.5 5.09473C9.47804 5.09473 8.47904 5.39777 7.62931 5.96554C6.77959 6.53331 6.11731 7.3403 5.72622 8.28446C5.33514 9.22862 5.23281 10.2676 5.43219 11.2699C5.63156 12.2722 6.12368 13.1929 6.84631 13.9155C7.56894 14.6381 8.48963 15.1303 9.49195 15.3296C10.4943 15.529 11.5332 15.4267 12.4774 15.0356C13.4215 14.6445 14.2285 13.9822 14.7963 13.1325C15.364 12.2828 15.6671 11.2838 15.6671 10.2618C15.6671 8.89142 15.1227 7.57715 14.1537 6.60813C13.1847 5.63912 11.8704 5.09473 10.5 5.09473ZM10.5 13.6159C9.83663 13.6159 9.18816 13.4192 8.63659 13.0506C8.08502 12.6821 7.65512 12.1582 7.40126 11.5454C7.1474 10.9325 7.08098 10.2581 7.2104 9.60748C7.33981 8.95686 7.65926 8.35922 8.12833 7.89015C8.5974 7.42108 9.19503 7.10164 9.84565 6.97222C10.4963 6.8428 11.1707 6.90923 11.7835 7.16308C12.3964 7.41694 12.9202 7.84684 13.2888 8.39841C13.6573 8.94998 13.854 9.59845 13.854 10.2618C13.8541 10.7023 13.7674 11.1385 13.5988 11.5454C13.4303 11.9524 13.1832 12.3221 12.8718 12.6336C12.5603 12.9451 12.1905 13.1921 11.7836 13.3607C11.3766 13.5292 10.9405 13.6159 10.5 13.6159Z" fill="white"/>
<path d="M15.8712 6.09811C16.5381 6.09811 17.0787 5.55749 17.0787 4.89061C17.0787 4.22372 16.5381 3.68311 15.8712 3.68311C15.2043 3.68311 14.6637 4.22372 14.6637 4.89061C14.6637 5.55749 15.2043 6.09811 15.8712 6.09811Z" fill="white"/>
</svg>
