<svg width="20" height="20" viewBox="0 0 20 20" fill="none" xmlns="http://www.w3.org/2000/svg">
<path d="M19.125 0.761719H0.875C0.375 0.761719 0 1.11797 0 1.59297V19.0492C0 19.4055 0.375 19.7617 0.875 19.7617H19.25C19.75 19.7617 20.125 19.4055 20.125 18.9305V1.59297C20 1.11797 19.625 0.761719 19.125 0.761719ZM5.875 16.9117H3V7.88672H6V16.9117H5.875ZM4.5 6.69922C3.5 6.69922 2.75 5.86797 2.75 5.03672C2.75 4.08672 3.5 3.37422 4.5 3.37422C5.5 3.37422 6.25 4.08672 6.25 5.03672C6.125 5.86797 5.375 6.69922 4.5 6.69922ZM17 16.9117H14V12.518C14 11.4492 14 10.143 12.5 10.143C11 10.143 10.75 11.3305 10.75 12.518V17.0305H7.75V7.88672H10.625V9.07422C11 8.36172 12 7.64922 13.375 7.64922C16.375 7.64922 16.875 9.54922 16.875 11.9242V16.9117H17Z" fill="white"/>
</svg>
