<svg width="20" height="19" viewBox="0 0 20 19" fill="none" xmlns="http://www.w3.org/2000/svg">
<path d="M19.5834 9.55468C19.5831 7.81489 19.0581 6.11161 18.0705 4.64647C17.0829 3.18134 15.674 2.01571 14.0108 1.28758C12.3475 0.559455 10.4995 0.299319 8.68545 0.53797C6.8714 0.776622 5.16732 1.50407 3.77494 2.63419C2.38256 3.76431 1.3602 5.24978 0.828876 6.91474C0.297555 8.57969 0.27953 10.3544 0.776934 12.0288C1.27434 13.7032 2.26634 15.2071 3.63551 16.3626C5.00467 17.518 6.69366 18.2765 8.50252 18.5484V12.1862H6.0696V9.55468H8.50252V7.54859C8.50252 5.26701 9.93335 4.00668 12.1221 4.00668C12.8408 4.01616 13.5579 4.07556 14.2675 4.18441V6.42482H13.0592C12.6952 6.37906 12.3269 6.47247 12.0353 6.68453C11.7437 6.89658 11.5527 7.20993 11.5042 7.55572C11.4909 7.65245 11.4888 7.75028 11.4979 7.84745V9.55468H14.1559L13.7309 12.1862H11.4975V18.5484C13.7518 18.2096 15.8049 17.1176 17.2872 15.4688C18.7695 13.8201 19.5837 11.7229 19.5834 9.55468Z" fill="#FDB813"/>
</svg>
