<svg width="21" height="21" viewBox="0 0 21 21" fill="none" xmlns="http://www.w3.org/2000/svg">
<path d="M10.5 2.25055C13.1867 2.25055 13.5051 2.26097 14.566 2.30913C15.2041 2.31687 15.8362 2.43405 16.4347 2.65556C16.8686 2.82311 17.2627 3.07957 17.5915 3.40846C17.9204 3.73734 18.1769 4.13139 18.3444 4.56528C18.5659 5.1638 18.6831 5.79589 18.6909 6.43403C18.739 7.49491 18.7495 7.81331 18.7495 10.5C18.7495 13.1867 18.739 13.5051 18.6909 14.566C18.6831 15.2041 18.5659 15.8362 18.3444 16.4347C18.1769 16.8686 17.9204 17.2627 17.5915 17.5915C17.2627 17.9204 16.8686 18.1769 16.4347 18.3444C15.8362 18.5659 15.2041 18.6831 14.566 18.6909C13.5051 18.739 13.187 18.7495 10.5 18.7495C7.81295 18.7495 7.49491 18.739 6.43403 18.6909C5.79589 18.6831 5.1638 18.5659 4.56528 18.3444C4.13139 18.1769 3.73734 17.9204 3.40846 17.5915C3.07957 17.2627 2.82311 16.8686 2.65556 16.4347C2.43405 15.8362 2.31687 15.2041 2.30913 14.566C2.26097 13.5051 2.25055 13.1867 2.25055 10.5C2.25055 7.81331 2.26097 7.49491 2.30913 6.43403C2.31687 5.79589 2.43405 5.1638 2.65556 4.56528C2.82311 4.13139 3.07957 3.73734 3.40846 3.40846C3.73734 3.07957 4.13139 2.82311 4.56528 2.65556C5.1638 2.43405 5.79589 2.31687 6.43403 2.30913C7.49491 2.26097 7.81331 2.25055 10.5 2.25055ZM10.5 0.4375C7.76875 0.4375 7.42447 0.449 6.35137 0.497875C5.51623 0.514303 4.68993 0.672273 3.90762 0.965062C3.23938 1.22392 2.63255 1.61945 2.12597 2.12634C1.61939 2.63323 1.22423 3.2403 0.965781 3.9087C0.672992 4.69101 0.515022 5.51731 0.498594 6.35245C0.449 7.42447 0.4375 7.76875 0.4375 10.5C0.4375 13.2312 0.449 13.5755 0.497875 14.6486C0.514303 15.4838 0.672273 16.3101 0.965062 17.0924C1.22371 17.7607 1.61908 18.3677 2.12584 18.8745C2.63261 19.3813 3.23961 19.7766 3.90798 20.0353C4.69029 20.3281 5.51659 20.4861 6.35173 20.5025C7.42447 20.551 7.76875 20.5625 10.5 20.5625C13.2312 20.5625 13.5755 20.551 14.6486 20.5021C15.4838 20.4857 16.3101 20.3277 17.0924 20.0349C17.7607 19.7763 18.3677 19.3809 18.8745 18.8742C19.3813 18.3674 19.7766 17.7604 20.0353 17.092C20.3281 16.3097 20.4861 15.4834 20.5025 14.6483C20.551 13.5755 20.5625 13.2312 20.5625 10.5C20.5625 7.76875 20.551 7.42447 20.5021 6.35137C20.4857 5.51623 20.3277 4.68993 20.0349 3.90762C19.7761 3.23938 19.3805 2.63255 18.8737 2.12597C18.3668 1.61939 17.7597 1.22423 17.0913 0.965781C16.309 0.672992 15.4827 0.515022 14.6475 0.498594C13.5755 0.449 13.2312 0.4375 10.5 0.4375Z" fill="#FDB813"/>
<path d="M10.5 5.33301C9.47803 5.33301 8.47902 5.63605 7.6293 6.20382C6.77957 6.77159 6.11729 7.57858 5.72621 8.52274C5.33512 9.4669 5.2328 10.5058 5.43217 11.5082C5.63155 12.5105 6.12366 13.4312 6.8463 14.1538C7.56893 14.8764 8.48961 15.3685 9.49193 15.5679C10.4942 15.7673 11.5332 15.665 12.4773 15.2739C13.4215 14.8828 14.2285 14.2205 14.7963 13.3708C15.364 12.5211 15.6671 11.5221 15.6671 10.5001C15.6671 9.1297 15.1227 7.81543 14.1537 6.84641C13.1847 5.8774 11.8704 5.33301 10.5 5.33301ZM10.5 13.8541C9.83661 13.8541 9.18814 13.6574 8.63657 13.2889C8.085 12.9203 7.65511 12.3965 7.40125 11.7836C7.14739 11.1708 7.08097 10.4964 7.21038 9.84576C7.3398 9.19514 7.65924 8.5975 8.12831 8.12843C8.59738 7.65936 9.19502 7.33992 9.84564 7.2105C10.4963 7.08109 11.1706 7.14751 11.7835 7.40137C12.3964 7.65523 12.9202 8.08512 13.2888 8.63669C13.6573 9.18826 13.854 9.83673 13.854 10.5001C13.8541 10.9406 13.7674 11.3767 13.5988 11.7837C13.4303 12.1906 13.1832 12.5604 12.8718 12.8719C12.5603 13.1833 12.1905 13.4304 11.7836 13.5989C11.3766 13.7675 10.9405 13.8542 10.5 13.8541Z" fill="#FDB813"/>
<path d="M15.8712 6.33639C16.5381 6.33639 17.0787 5.79577 17.0787 5.12889C17.0787 4.462 16.5381 3.92139 15.8712 3.92139C15.2043 3.92139 14.6637 4.462 14.6637 5.12889C14.6637 5.79577 15.2043 6.33639 15.8712 6.33639Z" fill="#FDB813"/>
</svg>
