<svg width="20" height="19" viewBox="0 0 20 19" fill="none" xmlns="http://www.w3.org/2000/svg">
<path d="M19.125 0H0.875C0.375 0 0 0.35625 0 0.83125V18.2875C0 18.6437 0.375 19 0.875 19H19.25C19.75 19 20.125 18.6438 20.125 18.1688V0.83125C20 0.35625 19.625 0 19.125 0ZM5.875 16.15H3V7.125H6V16.15H5.875ZM4.5 5.9375C3.5 5.9375 2.75 5.10625 2.75 4.275C2.75 3.325 3.5 2.6125 4.5 2.6125C5.5 2.6125 6.25 3.325 6.25 4.275C6.125 5.10625 5.375 5.9375 4.5 5.9375ZM17 16.15H14V11.7562C14 10.6875 14 9.38125 12.5 9.38125C11 9.38125 10.75 10.5687 10.75 11.7562V16.2687H7.75V7.125H10.625V8.3125C11 7.6 12 6.8875 13.375 6.8875C16.375 6.8875 16.875 8.7875 16.875 11.1625V16.15H17Z" fill="#FDB813"/>
</svg>
