<?xml version="1.0" standalone="no"?>
<!DOCTYPE svg PUBLIC "-//W3C//DTD SVG 1.1//EN" "http://www.w3.org/Graphics/SVG/1.1/DTD/svg11.dtd">
<svg xmlns="http://www.w3.org/2000/svg">
<defs >
<font id="DMSans" horiz-adv-x="511" ><font-face
    font-family="DM Sans 9pt ExtraLight"
    units-per-em="1000"
    panose-1="0 0 0 0 0 0 0 0 0 0"
    ascent="992"
    descent="-310"
    alphabetic="0" />
<glyph unicode=" " horiz-adv-x="251" />
<glyph unicode="!" horiz-adv-x="213" d="M87 175L82 700H131L125 175H87ZM106 -5Q89 -5 77 7T64 38Q64 55 76 67T106 80Q124 80 136 68T148 37Q148 20 136 8T106 -5Z" />
<glyph unicode="&quot;" horiz-adv-x="233" d="M156 562L145 755H196L188 562H156ZM47 562L37 755H89L79 562H47Z" />
<glyph unicode="#" horiz-adv-x="759" d="M420 0L565 690H608L463 0H420ZM145 0L290 690H334L189 0H145ZM52 218V258H674V218H52ZM84 434V474H707V434H84Z" />
<glyph unicode="$" horiz-adv-x="562" d="M259 -87V791H302V-87H259ZM289 -12Q208 -12 154 17T72 96T45 210H92Q92 161 112 120T176 53T288 28Q350 28 390 48T449 102T469 178Q469 229 447 259T388 309T307 341T219 371Q149 396 112 434T75 537Q75 586 98 625T168
688T280 712Q341 712 388 690T462 627T489 524H441Q441 571 422 604T366 654T279 672Q226 672 191 655T139 608T122 540Q122 497 143 471T199 429T279 398T369 366Q411 349 444 326T497 268T517 180Q517 128 492 85T417 15T289 -12Z" />
<glyph unicode="%" horiz-adv-x="697" d="M115 0L529 700H576L162 0H115ZM508 -12Q466 -12 432 7T379 63T359 147Q359 196 378 232T432 287T509 307Q551 307 584 288T637 232T656 147Q656 99 637 63T584 8T508 -12ZM508 26Q535 26 559 39T600 80T616 147Q616 188
601 215T561 255T509 269Q481 269 456 256T415 215T399 147Q399 107 415 80T455 40T508 26ZM190 392Q148 392 114 411T61 467T41 551Q41 600 61 636T115 691T191 711Q233 711 266 692T319 636T339 551Q339 503 319 467T266 412T190 392ZM190 430Q217 430 241 443T282
484T298 551Q298 592 283 619T243 659T191 673Q163 673 138 660T97 619T81 551Q81 511 97 484T137 444T190 430Z" />
<glyph unicode="&amp;" horiz-adv-x="694" d="M598 0L233 383Q186 433 163 473T140 563Q140 607 160 641T219 693T309 712Q358 712 395 694T454 643T475 564H429Q429 618 395 645T309 673Q250 673 218 642T186 564Q186 525 207 489T269 408L659 0H598ZM267 -12Q200
-12 150 13T71 86T43 196Q43 248 62 289T122 361T220 415L239 422L268 392L237 380Q162 350 126 306T90 197Q90 148 112 110T175 51T268 30Q333 30 382 59T481 155Q503 183 527 218T577 297L616 361H666L613 273Q587 228 562 191T513 123Q457 54 400 21T267 -12Z"
/>
<glyph unicode="&apos;" horiz-adv-x="130" d="M49 562L37 755H93L81 562H49Z" />
<glyph unicode="(" horiz-adv-x="346" d="M255 -145Q202 -97 155 -27T78 133T48 333Q48 443 77 533T154 693T255 811H304V807Q243 750 196 677T122 517T95 333Q95 237 122 150T196 -10T304 -140V-145H255Z" />
<glyph unicode=")" horiz-adv-x="346" d="M91 -145H42V-140Q103 -83 150 -10T224 150T251 333Q251 430 225 516T151 676T42 807V811H91Q144 763 191 693T268 533T298 333Q298 224 269 134T192 -27T91 -145Z" />
<glyph unicode="*" horiz-adv-x="460" d="M210 361L218 525L81 439L59 478L205 547L60 616L82 655L219 568L210 732H254L244 568L379 655L401 617L255 547L402 478L380 440L244 525L253 361H210Z" />
<glyph unicode="+" horiz-adv-x="500" d="M229 80V500H271V80H229ZM33 271V310H467V271H33Z" />
<glyph unicode="," horiz-adv-x="141" d="M-2 -123L58 73H112L34 -123H-2Z" />
<glyph unicode="-" horiz-adv-x="510" d="M67 272V311H443V272H67Z" />
<glyph unicode="." horiz-adv-x="165" d="M83 -5Q65 -5 53 7T41 38Q41 55 53 67T83 80Q101 80 113 68T125 37Q125 20 113 8T83 -5Z" />
<glyph unicode="/" horiz-adv-x="360" d="M31 -80L283 753H329L77 -80H31Z" />
<glyph unicode="0" horiz-adv-x="666" d="M333 -12Q243 -12 180 33T82 160T48 350Q48 459 82 540T179 666T333 712Q423 712 486 667T584 540T618 350Q618 242 584 161T487 34T333 -12ZM333 29Q402 29 456 67T540 178T571 350Q571 450 541 522T456 632T333 671Q264
671 210 632T126 522T95 350Q95 250 126 178T210 68T333 29Z" />
<glyph unicode="1" horiz-adv-x="271" d="M149 0V648L32 613V645L163 700H194V0H149Z" />
<glyph unicode="2" horiz-adv-x="565" d="M68 0V33Q142 95 208 156T327 279T409 400T439 519Q439 561 424 595T376 651T284 672Q228 672 192 648T138 585T121 501H76Q75 564 101 611T175 685T284 712Q338 712 383 694T456 633T484 520Q484 465 462 411T401 304T317
204T225 115T137 39H514V0H68Z" />
<glyph unicode="3" horiz-adv-x="577" d="M288 -12Q221 -12 169 12T86 84T52 200H99Q100 154 120 116T182 53T288 29Q348 29 387 52T447 114T467 201Q467 258 438 293T363 346T263 364H210V404H264Q348 404 391 441T434 543Q434 597 398 634T288 671Q220 671 178
632T129 532H83Q85 582 110 623T181 688T288 712Q352 712 395 690T459 629T481 545Q481 513 470 481T432 422T359 386Q402 376 437 353T493 292T514 201Q514 145 489 96T413 18T288 -12Z" />
<glyph unicode="4" horiz-adv-x="576" d="M394 0V169H34V204L384 700H438V208H551V169H438V0H394ZM85 208H395V648V648L85 208Z" />
<glyph unicode="5" horiz-adv-x="599" d="M305 -12Q237 -12 187 13T106 81T65 178H110Q125 110 175 69T305 28Q365 28 407 55T471 129T494 234Q494 293 471 339T406 412T307 439Q239 439 192 410T121 332H79L137 700H489V661H173L129 400Q154 432 200 455T309
479Q357 479 398 462T472 412T521 335T539 234Q539 187 525 143T481 64T408 9T305 -12Z" />
<glyph unicode="6" horiz-adv-x="619" d="M316 -12Q242 -12 192 16T113 92T70 200T57 323Q57 438 88 526T178 663T319 712Q380 712 425 688T497 624T531 531H487Q477 597 433 634T319 672Q255 672 206 632T129 516T100 328Q100 318 100 309T101 286Q115 329 145
365T219 424T320 446Q381 446 434 419T520 341T554 218Q554 162 528 109T448 22T316 -12ZM314 29Q372 29 415 54T483 122T507 217Q507 274 482 316T413 382T314 405Q260 405 216 379T147 309T121 216Q121 162 145 120T213 54T314 29Z" />
<glyph unicode="7" horiz-adv-x="530" d="M161 0L443 661H26V700H490V664L209 0H161Z" />
<glyph unicode="8" horiz-adv-x="588" d="M294 -12Q223 -12 172 13T93 83T65 185Q65 231 83 270T136 335T217 371Q151 388 118 431T85 531Q85 580 108 621T177 687T294 712Q364 712 410 687T480 621T503 531Q503 474 470 431T371 371Q419 362 453 336T505 270T523
185Q523 128 495 84T416 14T294 -12ZM294 29Q385 29 430 72T476 187Q476 268 427 307T294 347Q211 347 162 308T112 187Q112 116 157 73T294 29ZM294 390Q367 390 411 426T456 530Q456 600 412 635T294 671Q220 671 176 636T132 530Q132 463 176 427T294 390Z"
/>
<glyph unicode="9" horiz-adv-x="619" d="M300 -12Q239 -12 194 12T123 77T88 169H131Q143 103 187 66T300 28Q364 28 412 69T489 187T519 371Q519 381 519 391T518 414Q504 372 474 336T400 277T298 255Q238 255 185 281T99 359T65 482Q65 538 91 591T171 678T302
712Q377 712 427 684T506 608T549 501T562 377Q562 265 531 177T441 39T300 -12ZM305 295Q359 295 403 321T472 391T498 485Q498 538 474 580T406 647T305 671Q246 671 203 646T136 579T112 484Q112 426 137 384T206 318T305 295Z" />
<glyph unicode=":" horiz-adv-x="167" d="M83 -5Q65 -5 53 7T41 38Q41 55 53 67T83 80Q101 80 113 68T125 37Q125 20 113 8T83 -5ZM83 433Q65 433 53 445T41 476Q41 493 53 505T83 518Q101 518 113 506T125 475Q125 458 113 446T83 433Z" />
<glyph unicode=";" horiz-adv-x="188" d="M104 433Q86 433 74 445T62 476Q62 493 74 505T104 518Q122 518 134 506T146 475Q146 458 134 446T104 433ZM23 -123L83 73H137L59 -123H23Z" />
<glyph unicode="&lt;" horiz-adv-x="500" d="M410 34H351L90 269V269L351 504H410L150 269L410 34Z" />
<glyph unicode="=" horiz-adv-x="500" d="M62 370V409H438V370H62ZM62 177V215H438V177H62Z" />
<glyph unicode="&gt;" horiz-adv-x="500" d="M90 34L350 269L90 504H149L410 269V269L149 34H90Z" />
<glyph unicode="?" horiz-adv-x="508" d="M168 192L165 335H183Q227 335 269 342T344 369T398 422T418 511Q418 560 396 596T336 652T248 672Q197 672 159 654T100 601T79 518H35Q36 580 64 623T141 689T248 712Q310 712 358 687T434 617T462 510Q462 438 430
391T340 322T209 300L206 192H168ZM186 -5Q169 -5 157 7T144 38Q144 55 156 67T186 80Q204 80 216 68T228 37Q228 20 216 8T186 -5Z" />
<glyph unicode="@" horiz-adv-x="974" d="M419 -187Q318 -187 241 -147T120 -33T76 142Q76 244 109 332T205 486T354 590T546 628Q652 628 731 587T854 471T898 300Q898 244 885 190T848 92T787 21T705 -6Q652 -6 630 28T613 115L618 151L632 142Q603 68 548 31T429
-6Q354 -6 313 41T271 168Q271 222 288 272T336 362T412 424T511 447Q575 447 613 409T655 307L639 295L663 434H705L653 140Q644 89 657 59T710 29Q746 29 773 54T819 119T848 206T858 297Q858 389 819 455T708 557T539 593Q446 593 369 559T235 463T147 321T116
147Q115 52 154 -15T263 -117T428 -152Q470 -152 513 -144T596 -119L603 -153Q560 -170 514 -178T419 -187ZM441 32Q490 32 530 57T596 128T629 232Q635 282 625 322T586 386T511 410Q465 410 428 390T366 335T327 259T314 173Q314 109 346 71T441 32Z" />
<glyph unicode="A" horiz-adv-x="625" d="M33 0L290 700H338L592 0H544L313 642V642L80 0H33ZM142 222L157 260H469L484 222H142Z" />
<glyph unicode="B" horiz-adv-x="571" d="M77 0V700H292Q367 700 414 676T483 613T506 526Q506 470 483 434T422 379T345 355L351 364Q395 363 434 341T497 280T522 191Q522 141 499 98T427 27T298 0H77ZM122 40H300Q383 40 429 80T475 192Q475 259 427 300T296
342H122V40ZM122 381H298Q375 381 417 419T459 522Q459 583 417 622T295 662H122V381Z" />
<glyph unicode="C" horiz-adv-x="699" d="M374 -12Q275 -12 202 33T88 160T48 350Q48 459 88 540T201 666T374 712Q489 712 559 660T651 511H601Q583 583 528 627T374 671Q291 671 229 633T131 523T95 350Q95 249 130 178T228 68T374 29Q471 29 527 73T601 190H651Q629
94 559 41T374 -12Z" />
<glyph unicode="D" horiz-adv-x="669" d="M77 0V700H261Q385 700 465 659T583 538T621 347Q621 244 585 166T470 44T265 0H77ZM122 38H264Q374 38 442 75T542 182T574 347Q574 444 543 514T444 623T264 662H122V38Z" />
<glyph unicode="E" horiz-adv-x="547" d="M77 0V700H488V662H122V370H458V331H122V38H488V0H77Z" />
<glyph unicode="F" horiz-adv-x="517" d="M77 0V700H481V662H122V371H439V333H122V0H77Z" />
<glyph unicode="G" horiz-adv-x="741" d="M369 -12Q272 -12 200 34T88 161T48 351Q48 459 89 540T204 666T379 712Q492 712 567 658T667 504H615Q596 580 537 625T379 670Q295 670 231 632T131 523T95 351Q95 253 130 181T226 69T369 30Q495 30 560 107T633 328H407V365H680V0H640L632
158V158Q608 103 572 65T485 8T369 -12Z" />
<glyph unicode="H" horiz-adv-x="652" d="M530 0V700H575V0H530ZM77 0V700H122V0H77ZM107 338V376H548V338H107Z" />
<glyph unicode="I" horiz-adv-x="199" d="M77 0V700H122V0H77Z" />
<glyph unicode="J" horiz-adv-x="470" d="M212 -12Q153 -12 112 10T50 72T28 169H74Q75 132 87 100T130 49T213 29Q265 29 294 48T335 100T347 171V700H392V171Q392 82 345 35T212 -12Z" />
<glyph unicode="K" horiz-adv-x="529" d="M77 0V700H122V363L443 700H502L207 394L505 0H448L174 361L122 305V0H77Z" />
<glyph unicode="L" horiz-adv-x="502" d="M77 0V700H122V37H462V0H77Z" />
<glyph unicode="M" horiz-adv-x="803" d="M77 0V700H129L402 157V157L673 700H726V0H681V616V616L420 98H382L122 614V614V0H77Z" />
<glyph unicode="N" horiz-adv-x="656" d="M77 0V700H125L534 74V74V700H579V0H532L122 628V628V0H77Z" />
<glyph unicode="O" horiz-adv-x="766" d="M382 -12Q282 -12 207 33T90 160T48 350Q48 457 90 538T207 666T382 712Q484 712 559 666T676 539T717 350Q717 242 676 161T560 34T382 -12ZM383 29Q466 29 531 67T633 177T670 350Q670 451 633 523T531 633T383 671Q300
671 235 633T133 523T95 350Q95 249 132 177T235 67T383 29Z" />
<glyph unicode="P" horiz-adv-x="551" d="M77 0V700H281Q362 700 413 675T489 605T513 504Q513 447 489 403T414 333T281 308H122V0H77ZM122 347H282Q375 347 420 387T466 504Q466 581 421 621T282 661H122V347Z" />
<glyph unicode="Q" horiz-adv-x="766" d="M579 -90L356 270H412L635 -90H579ZM382 -12Q282 -12 207 33T90 160T48 350Q48 457 90 538T207 666T382 712Q484 712 559 666T676 539T717 350Q717 242 676 161T560 34T382 -12ZM383 29Q466 29 531 67T633 177T670 350Q670
451 633 523T531 633T383 671Q300 671 235 633T133 523T95 350Q95 249 132 177T235 67T383 29Z" />
<glyph unicode="R" horiz-adv-x="562" d="M77 0V700H273Q354 700 404 674T478 604T502 502Q502 443 478 398T404 327T270 301H122V0H77ZM456 0L294 319H346L510 0H456ZM122 338H271Q362 338 408 380T455 502Q455 578 409 620T271 662H122V338Z" />
<glyph unicode="S" horiz-adv-x="562" d="M289 -12Q208 -12 154 17T72 96T45 210H92Q92 161 112 120T176 53T288 28Q350 28 390 48T449 102T469 178Q469 229 447 259T388 309T307 341T219 371Q149 396 112 434T75 537Q75 586 98 625T168 688T280 712Q341 712 388
690T462 627T489 524H441Q441 571 422 604T366 654T279 672Q226 672 191 655T139 608T122 540Q122 497 143 471T199 429T279 398T369 366Q411 349 444 326T497 268T517 180Q517 128 492 85T417 15T289 -12Z" />
<glyph unicode="T" horiz-adv-x="529" d="M242 0V662H30V700H498V662H287V0H242Z" />
<glyph unicode="U" horiz-adv-x="629" d="M315 -12Q247 -12 192 15T103 100T70 249V700H115V250Q115 172 141 123T212 52T315 29Q374 29 418 51T488 123T513 250V700H558V249Q558 158 526 101T439 16T315 -12Z" />
<glyph unicode="V" horiz-adv-x="645" d="M296 0L25 700H74L322 51V51L572 700H621L348 0H296Z" />
<glyph unicode="W" horiz-adv-x="928" d="M221 0L27 700H75L247 58V58L439 700H491L679 58V58L853 700H901L705 0H653L464 633V633L271 0H221Z" />
<glyph unicode="X" horiz-adv-x="548" d="M41 0L247 351L42 700H92L276 388V388L458 700H508L301 349L507 0H457L272 313V313L91 0H41Z" />
<glyph unicode="Y" horiz-adv-x="532" d="M245 0V293L23 700H73L274 324H262L458 700H509L290 293V0H245Z" />
<glyph unicode="Z" horiz-adv-x="515" d="M43 0V37L412 660H51V700H465V662L96 41H472V0H43Z" />
<glyph unicode="[" horiz-adv-x="269" d="M77 -134V811H208V773H120V-95H208V-134H77Z" />
<glyph unicode="\" horiz-adv-x="360" d="M329 -80H283L30 753H77L329 -80Z" />
<glyph unicode="]" horiz-adv-x="269" d="M192 -134H61V-95H149V773H61V811H192V-134Z" />
<glyph unicode="^" horiz-adv-x="578" d="M39 218L269 700H311L541 218H492L290 646V646L86 218H39Z" />
<glyph unicode="_" horiz-adv-x="606" d="M67 -76V-33H539V-76H67Z" />
<glyph unicode="`" horiz-adv-x="196" d="M191 547L0 667L7 709V709L196 583L191 547Z" />
<glyph unicode="a" horiz-adv-x="506" d="M223 -12Q166 -12 127 10T68 67T48 144Q48 199 73 234T143 286T249 304H401Q401 358 386 396T338 455T254 476Q193 476 154 447T104 359H57Q64 412 92 446T163 498T254 516Q323 516 365 489T426 415T446 309V0H406L402
101V101Q394 85 380 65T344 28T294 0T223 -12ZM228 29Q271 29 303 45T357 89T390 149T401 212V265H253Q193 265 159 250T111 207T96 145Q96 113 111 87T156 45T228 29Z" />
<glyph unicode="b" horiz-adv-x="605" d="M318 -12Q271 -12 231 5T162 53T117 123V123L111 0H71V717H116V376Q139 438 191 477T318 516Q392 516 445 482T528 388T557 251Q557 175 528 116T446 22T318 -12ZM316 29Q373 29 417 56T486 134T511 252Q511 320 486 370T417
448T316 475Q259 475 215 447T147 369T122 252Q122 186 146 136T215 58T316 29Z" />
<glyph unicode="c" horiz-adv-x="546" d="M285 -12Q217 -12 163 20T79 112T48 251Q48 332 79 391T165 483T285 516Q370 516 426 472T498 359H451Q439 413 395 444T286 475Q237 475 193 451T122 377T95 251Q95 193 111 151T154 82T216 41T286 28Q327 28 361 41T420
81T451 145H498Q484 77 429 33T285 -12Z" />
<glyph unicode="d" horiz-adv-x="605" d="M286 -12Q213 -12 160 22T77 116T48 252Q48 328 77 387T160 481T287 516Q360 516 412 479T489 376V720H534V0H494L488 124V124Q473 86 445 56T376 7T286 -12ZM289 29Q347 29 390 57T458 136T483 252Q483 318 459 368T391
447T289 475Q233 475 189 448T119 371T94 252Q94 184 119 134T189 57T289 29Z" />
<glyph unicode="e" horiz-adv-x="543" d="M278 -12Q208 -12 156 21T76 114T48 255Q48 337 77 395T159 484T280 516Q353 516 402 484T476 398T501 282Q501 272 501 263T500 242H80V281H457Q456 378 406 427T278 476Q231 476 189 454T120 386T93 269V251Q93 175
119 126T187 52T278 28Q341 28 382 58T442 141H488Q474 97 447 62T377 8T278 -12Z" />
<glyph unicode="f" horiz-adv-x="318" d="M104 0V607Q104 644 115 669T152 707T219 720H273V681H224Q183 681 166 664T149 605V0H104ZM22 465V504H288V465H22Z" />
<glyph unicode="g" horiz-adv-x="573" d="M268 -232Q202 -232 151 -213T71 -158T41 -69Q41 -43 49 -18T80 31T144 79L183 61Q126 31 107 0T87 -64Q87 -104 110 -132T175 -176T268 -192Q323 -192 362 -177T422 -134T444 -70Q444 -20 409 9T281 44Q225 48 187 54T123
68T80 87T47 107V127L137 207L180 191L87 112V133Q100 126 112 119T145 106T199 95T290 85Q364 80 408 61T471 9T490 -67Q490 -109 468 -147T396 -208T268 -232ZM267 157Q202 157 159 181T94 245T72 336Q72 388 94 428T159 492T267 516Q334 516 377 493T441 429T462
336Q462 286 441 246T377 181T267 157ZM267 197Q341 197 379 233T417 336Q417 407 378 441T267 476Q199 476 159 442T118 336Q118 268 158 233T267 197ZM356 463L339 504H531V466L356 463Z" />
<glyph unicode="h" horiz-adv-x="539" d="M71 0V720H116V399V399Q141 455 189 485T293 516Q348 516 390 494T455 426T479 308V0H435V301Q435 390 397 432T288 475Q239 475 200 451T139 381T116 269V0H71Z" />
<glyph unicode="i" horiz-adv-x="199" d="M77 0V504H122V0H77ZM100 637Q86 637 76 647T65 673Q65 688 75 697T100 707Q114 707 124 698T135 673Q135 658 125 648T100 637Z" />
<glyph unicode="j" horiz-adv-x="211" d="M-27 -220V-180H11Q54 -180 71 -162T89 -102V504H134V-107Q134 -144 122 -169T85 -207T18 -220H-27ZM112 637Q97 637 87 647T77 673Q77 688 87 697T111 707Q126 707 136 698T146 673Q146 658 136 648T112 637Z" />
<glyph unicode="k" horiz-adv-x="445" d="M366 0L107 276L346 504H405L150 262V290L427 0H366ZM71 0V720H116V0H71Z" />
<glyph unicode="l" horiz-adv-x="186" d="M71 0V720H116V0H71Z" />
<glyph unicode="m" horiz-adv-x="852" d="M71 0V504H111L116 408V408Q140 461 182 488T281 516Q315 516 346 505T402 468T440 397V397Q459 449 502 482T608 516Q664 516 705 494T769 424T792 302V0H747V299Q747 390 711 432T606 475Q564 475 530 454T475 392T454
289V0H409V302Q409 391 374 433T277 475Q229 475 193 451T137 381T116 266V0H71Z" />
<glyph unicode="n" horiz-adv-x="538" d="M71 0V504H111L115 402V402Q141 459 187 487T291 516Q346 516 388 494T454 427T478 309V0H433V302Q433 391 395 433T285 475Q237 475 199 452T138 383T116 272V0H71Z" />
<glyph unicode="o" horiz-adv-x="581" d="M289 -12Q220 -12 166 20T80 111T48 251Q48 334 80 393T167 484T291 516Q361 516 415 484T501 393T533 251Q533 171 501 112T414 20T289 -12ZM289 28Q341 28 385 53T458 128T486 252Q486 326 459 376T387 450T291 475Q240
475 195 450T123 376T95 252Q95 178 122 128T194 53T289 28Z" />
<glyph unicode="p" horiz-adv-x="605" d="M71 -220V504H111L116 378V378Q131 416 159 447T227 497T319 516Q393 516 446 482T528 388T557 251Q557 175 528 116T446 22T318 -12Q246 -12 193 25T116 128V-220H71ZM316 29Q373 29 417 56T486 133T511 252Q511 320
486 370T417 447T316 475Q259 475 215 447T147 368T122 252Q122 186 146 136T215 57T316 29Z" />
<glyph unicode="q" horiz-adv-x="605" d="M489 -220V127Q466 65 414 27T287 -12Q213 -12 160 22T77 116T48 252Q48 328 77 387T159 481T287 516Q336 516 376 497T445 447T489 377V377L494 504H534V-220H489ZM289 29Q347 29 390 57T458 135T483 252Q483 317 459
367T391 446T289 475Q233 475 189 448T119 370T94 252Q94 183 119 133T188 56T289 29Z" />
<glyph unicode="r" horiz-adv-x="338" d="M71 0V504H111L116 402V402Q133 442 160 467T226 504T312 516V470H294Q264 470 233 462T175 434T132 375T116 278V0H71Z" />
<glyph unicode="s" horiz-adv-x="475" d="M246 -12Q191 -12 147 6T77 62T43 154H91Q95 114 116 86T172 44T247 29Q288 29 316 42T360 78T376 131Q376 168 361 188T314 220T236 240Q198 247 168 258T116 285T82 324T70 378Q70 419 90 450T148 498T236 516Q308 516
355 478T410 366H364Q361 415 328 445T235 475Q178 475 148 450T117 382Q117 358 129 339T170 306T245 281Q294 272 334 258T399 216T423 136Q423 93 402 60T341 7T246 -12Z" />
<glyph unicode="t" horiz-adv-x="362" d="M247 0Q207 0 180 12T138 53T123 133V465H35V504H123L130 614H168V504H326V465H168V134Q168 81 189 60T260 39H316V0H247Z" />
<glyph unicode="u" horiz-adv-x="538" d="M247 -12Q193 -12 151 9T84 76T60 195V504H105V202Q105 113 143 71T255 29Q304 29 341 52T400 121T422 232V504H467V0H428L422 102V102Q397 44 350 16T247 -12Z" />
<glyph unicode="v" horiz-adv-x="499" d="M224 0L27 504H76L250 47V47L424 504H472L275 0H224Z" />
<glyph unicode="w" horiz-adv-x="712" d="M170 0L27 504H74L198 50H191L330 504H382L519 51H512L638 504H685L539 0H491L353 463H360L217 0H170Z" />
<glyph unicode="x" horiz-adv-x="435" d="M20 0L187 250L20 504H69L218 276V276L367 504H415L249 251L415 0H367L218 225V225L69 0H20Z" />
<glyph unicode="y" horiz-adv-x="518" d="M117 -220L244 56H227L20 504H70L259 90V90L450 504H498L164 -220H117Z" />
<glyph unicode="z" horiz-adv-x="433" d="M37 0V38L334 465H42V504H386V466L88 38H391V0H37Z" />
<glyph unicode="{" horiz-adv-x="398" d="M307 -133Q246 -133 209 -100T172 3Q172 38 178 65T189 122T195 193Q195 220 186 245T153 291T80 321V358Q128 368 152 387T186 433T195 486Q195 528 190 557T178 613T172 675Q172 746 209 778T307 811H355V770H313Q268
770 243 748T217 672Q217 639 222 613T234 556T240 485Q240 433 214 394T127 340V338Q187 324 213 286T240 193Q240 153 235 123T223 66T217 6Q217 -48 242 -69T313 -91H355V-133H307Z" />
<glyph unicode="|" horiz-adv-x="199" d="M77 -100V720H122V-100H77Z" />
<glyph unicode="}" horiz-adv-x="398" d="M91 -133H43V-91H85Q130 -91 155 -70T181 5Q181 39 176 66T164 123T158 194Q158 247 184 285T271 338V340Q211 355 185 394T158 485Q158 526 164 555T175 612T181 672Q181 726 156 748T85 770H43V811H91Q152 811 189 779T226
675Q226 641 221 614T210 557T204 486Q204 459 213 433T246 388T318 358V321Q271 310 247 291T213 246T204 193Q204 152 209 122T220 65T226 3Q226 -66 189 -99T91 -133Z" />
<glyph unicode="~" horiz-adv-x="500" d="M328 268Q302 268 282 278T245 302T209 326T168 336Q141 336 125 320T102 270H65Q71 304 84 328T120 365T170 378Q197 378 217 368T256 344T292 320T331 310Q361 310 377 328T398 375H435Q430 340 416 317T380 281T328 268Z" />
<glyph unicode="&#xa0;" horiz-adv-x="251" />
<glyph unicode="&#xa1;" horiz-adv-x="213" d="M87 336H125L131 -189H82L87 336ZM106 516Q124 516 136 504T148 473Q148 456 136 444T106 431Q89 431 77 443T64 473Q64 491 76 503T106 516Z" />
<glyph unicode="&#xa2;" horiz-adv-x="546" d="M253 -105V19H297V-105H253ZM253 486V609H297V486H253ZM285 -12Q217 -12 163 20T79 112T48 251Q48 332 79 391T165 483T285 516Q370 516 426 472T498 359H451Q439 413 395 444T286 475Q237 475 193 451T122 377T95
251Q95 193 111 151T154 82T216 41T286 28Q327 28 361 41T420 81T451 145H498Q484 77 429 33T285 -12Z" />
<glyph unicode="&#xa3;" horiz-adv-x="581" d="M94 0V33Q119 62 138 88T168 145T180 218Q180 258 169 291T144 356T119 427T108 513Q108 572 134 617T207 687T312 712Q378 712 423 685T492 614T519 516H476Q471 584 430 628T312 673Q274 673 237 657T176 605T152
512Q152 468 163 432T188 363T213 295T224 219Q224 164 203 122T144 38H518V0H94ZM47 321V355H388V321H47Z" />
<glyph unicode="&#xa4;" horiz-adv-x="509" d="M255 124Q208 124 170 145T110 206T88 297Q88 350 110 389T171 449T255 471Q301 471 339 450T399 389T422 297Q422 245 399 206T339 146T255 124ZM91 102L66 128L141 203L162 174L91 102ZM418 102L348 173L369 201L443
127L418 102ZM255 163Q285 163 313 177T358 221T376 297Q376 343 359 373T313 417T255 432Q223 432 196 418T151 373T134 297Q134 251 151 221T195 177T255 163ZM142 394L66 469L91 494L163 422L142 394ZM367 393L347 421L418 494L443 469L367 393Z" />
<glyph unicode="&#xa5;" horiz-adv-x="557" d="M59 187V222H504V187H59ZM261 328H59V363H248L261 328ZM301 328L315 363H504V328H301ZM256 0V293L34 700H85L285 324H273L469 700H521L301 293V0H256Z" />
<glyph unicode="&#xa6;" horiz-adv-x="199" d="M77 381V720H122V381H77ZM77 -100V239H122V-100H77Z" />
<glyph unicode="&#xa7;" horiz-adv-x="565" d="M280 -232Q215 -232 169 -207T98 -139T75 -44H121Q121 -83 138 -117T191 -171T281 -192Q353 -192 398 -155T443 -50Q443 -11 426 13T379 53T305 83T210 115Q161 132 124 154T66 212T45 301Q45 338 60 375T105 438Q91
456 84 478T77 526Q77 579 101 621T171 687T283 712Q348 712 394 687T466 620T490 524H444Q444 558 427 592T374 650T281 673Q212 672 168 636T124 530Q124 491 140 468T187 428T260 398T356 365Q405 347 441 323T498 263T519 177Q519 139 506 104T461 43Q475 24
482 3T489 -46Q490 -98 466 -140T394 -207T280 -232ZM430 72Q452 92 462 117T473 175Q473 221 452 251T396 300T320 332T238 360Q202 372 178 383T135 409Q112 388 101 361T90 302Q90 262 105 236T146 192T207 162T278 138T352 113Q374 104 394 94T430 72Z" />
<glyph unicode="&#xa8;" horiz-adv-x="272" d="M208 580Q192 580 181 591T169 619Q169 635 180 646T208 658Q224 658 235 646T246 619Q246 602 235 591T208 580ZM66 580Q50 580 38 591T26 619Q26 635 38 646T66 658Q81 658 93 646T105 619Q105 602 93 591T66 580Z" />
<glyph unicode="&#xa9;" horiz-adv-x="795" d="M397 -3Q295 -3 218 42T98 167T54 349Q54 453 97 532T218 656T397 701Q499 701 576 656T697 532T741 349Q741 247 698 168T577 43T397 -3ZM397 115Q339 115 291 142T212 222T182 351Q182 426 212 478T290 558T397
586Q469 586 524 548T600 438H555Q537 493 494 520T398 548Q352 548 313 526T249 460T225 349Q225 284 249 240T312 173T398 151Q454 151 495 178T555 261H600Q579 192 524 154T397 115ZM397 25Q494 25 564 66T673 181T712 349Q712 445 674 518T565 632T397 674Q301
674 230 633T121 518T83 349Q83 255 121 182T230 67T397 25Z" />
<glyph unicode="&#xaa;" horiz-adv-x="450" d="M210 347Q162 347 125 370T68 435T48 529Q48 582 68 623T125 687T211 711Q264 711 301 684T353 611L356 704H390V354H357L352 445V445Q337 402 300 375T210 347ZM217 379Q255 379 284 398T330 451T348 529Q348 598
311 638T218 679Q163 679 126 640T88 530Q88 460 125 420T217 379Z" />
<glyph unicode="&#xab;" horiz-adv-x="404" d="M304 120L201 295L304 470H353L248 295L353 120H304ZM148 120L45 295L148 470H197L92 295L197 120H148Z" />
<glyph unicode="&#xac;" horiz-adv-x="500" d="M480 243V389H-24V428H525V243H480Z" />
<glyph unicode="&#xae;" horiz-adv-x="494" d="M248 319Q192 319 149 344T80 414T55 515Q55 572 79 616T148 686T248 712Q304 712 347 686T415 616T440 515Q440 459 415 415T347 345T248 319ZM295 408L228 509H268L338 408H295ZM248 346Q297 346 333 368T389 428T410
515Q410 564 390 601T333 661T248 684Q199 684 162 662T105 602T85 515Q85 466 105 428T162 368T248 346ZM173 408V624H261Q295 624 313 607T332 559Q332 530 314 513T261 496H209V408H173ZM209 529H261Q276 529 286 536T297 560Q297 576 287 583T261 590H209V529Z"
/>
<glyph unicode="&#xaf;" horiz-adv-x="359" d="M18 604V642H341V604H18Z" />
<glyph unicode="&#xb0;" horiz-adv-x="326" d="M163 460Q129 460 101 475T57 519T40 585Q40 625 57 653T102 696T163 712Q197 712 225 697T269 653T286 585Q286 548 269 520T224 476T163 460ZM163 505Q190 505 214 525T238 586Q238 627 215 647T164 668Q136 668
113 648T89 586Q89 546 112 526T163 505Z" />
<glyph unicode="&#xb1;" horiz-adv-x="500" d="M20 0V36H479V0H20ZM229 99V445H271V99H229ZM20 253V292H479V253H20Z" />
<glyph unicode="&#xb2;" horiz-adv-x="306" d="M33 352V379L143 478Q172 505 193 533T215 603Q215 640 195 658T145 676Q114 676 95 659T72 606H33Q36 647 64 677T146 708Q178 708 202 696T241 660T256 604Q256 562 235 530T169 459L84 385H264V352H33Z" />
<glyph unicode="&#xb3;" horiz-adv-x="306" d="M152 347Q99 347 67 372T29 447H67Q70 420 82 405T113 385T152 379Q187 379 208 396T230 448Q230 478 209 496T145 515H96V546H145Q181 546 203 563T226 612Q226 641 205 658T150 676Q115 676 95 660T68 620H32Q36
646 51 666T93 697T152 708Q197 708 231 682T266 613Q266 579 248 559T199 531V529Q229 524 249 502T270 445Q270 404 239 376T152 347Z" />
<glyph unicode="&#xb4;" horiz-adv-x="196" d="M5 547L0 583L189 709V709L196 667L5 547Z" />
<glyph unicode="&#xb5;" horiz-adv-x="550" d="M71 -220V496H116V178Q116 105 152 67T260 29Q309 29 349 51T412 120T435 234V496H480V0H439L435 100H434Q409 45 361 17T253 -12Q207 -12 172 2T116 41V-220H71Z" />
<glyph unicode="&#xb6;" horiz-adv-x="535" d="M278 -100V306H274Q194 306 142 331T64 401T38 503Q38 561 64 605T142 674T274 700H458V-100H416V663H319V-100H278Z" />
<glyph unicode="&#xb7;" horiz-adv-x="165" d="M83 295Q65 295 53 307T41 337Q41 355 53 367T83 379Q100 379 112 367T125 337Q125 320 113 308T83 295Z" />
<glyph unicode="&#xb8;" horiz-adv-x="199" d="M0 -255V-222H75Q120 -222 139 -207T158 -163Q158 -138 139 -123T75 -107H35V7H70V-75Q111 -73 140 -83T184 -114T199 -162Q199 -189 186 -210T147 -243T86 -255H0Z" />
<glyph unicode="&#xb9;" horiz-adv-x="176" d="M94 352V662L30 642V668L101 704H133V352H94Z" />
<glyph unicode="&#xba;" horiz-adv-x="438" d="M218 347Q170 347 132 370T71 434T48 530Q48 585 71 626T132 689T219 712Q268 712 306 690T367 626T390 530Q390 475 367 434T305 370T218 347ZM218 381Q253 381 283 398T331 448T349 530Q349 579 331 612T284 662T218
679Q183 679 154 663T106 613T88 530Q88 482 105 449T153 398T218 381Z" />
<glyph unicode="&#xbb;" horiz-adv-x="404" d="M99 120H50L155 295L50 470H99L202 295L99 120ZM255 120H206L311 295L206 470H255L358 295L255 120Z" />
<glyph unicode="&#xbc;" horiz-adv-x="632" d="M94 352V662L30 642V668L101 704H133V352H94ZM45 0L462 700H511L92 0H45ZM526 0V74H347V106L519 348H564V107H617V74H564V0H526ZM389 107H528V305V305L389 107Z" />
<glyph unicode="&#xbd;" horiz-adv-x="664" d="M94 352V662L30 642V668L101 704H133V352H94ZM45 0L462 700H511L92 0H45ZM391 0V27L501 126Q530 153 551 181T573 251Q573 288 553 306T503 324Q472 324 453 307T430 254H391Q394 295 422 325T504 356Q536 356 560
344T599 308T614 252Q614 210 593 178T527 107L442 33H622V0H391Z" />
<glyph unicode="&#xbe;" horiz-adv-x="742" d="M152 347Q99 347 67 372T29 447H67Q70 420 82 405T113 385T152 379Q187 379 208 396T230 448Q230 478 209 496T145 515H96V546H145Q181 546 203 563T226 612Q226 641 205 658T150 676Q115 676 95 660T68 620H32Q36
646 51 666T93 697T152 708Q197 708 231 682T266 613Q266 579 248 559T199 531V529Q229 524 249 502T270 445Q270 404 239 376T152 347ZM155 0L572 700H621L202 0H155ZM637 0V74H458V106L630 348H675V107H728V74H675V0H637ZM500 107H639V305V305L500 107Z" />
<glyph unicode="&#xbf;" horiz-adv-x="508" d="M340 319L344 176H325Q281 176 239 169T164 142T111 89T91 0Q91 -49 112 -85T172 -141T261 -161Q312 -161 349 -143T408 -90T429 -8H473Q473 -68 445 -111T368 -178T261 -201Q198 -201 150 -176T74 -106T46 0Q46
74 78 120T168 189T300 211L302 319H340ZM322 516Q340 516 352 504T364 473Q364 456 352 444T322 431Q305 431 293 443T280 473Q280 491 292 503T322 516Z" />
<glyph unicode="&#xc0;" horiz-adv-x="625" d="M33 0L290 700H338L592 0H544L313 642V642L80 0H33ZM142 222L157 260H469L484 222H142ZM406 743L215 863L222 906V906L411 780L406 743Z" />
<glyph unicode="&#xc1;" horiz-adv-x="625" d="M33 0L290 700H338L592 0H544L313 642V642L80 0H33ZM142 222L157 260H469L484 222H142ZM221 743L216 780L405 906V906L412 863L221 743Z" />
<glyph unicode="&#xc2;" horiz-adv-x="625" d="M33 0L290 700H338L592 0H544L313 642V642L80 0H33ZM142 222L157 260H469L484 222H142ZM184 763V805L313 888L442 805V763L313 847L184 763Z" />
<glyph unicode="&#xc3;" horiz-adv-x="625" d="M33 0L290 700H338L592 0H544L313 642V642L80 0H33ZM142 222L157 260H469L484 222H142ZM379 761Q353 761 337 773T307 796T272 808Q256 808 245 797T230 763H198Q202 801 222 822T274 843Q299 843 314 832T345 808T382
795Q398 795 410 806T425 840H456Q454 805 432 783T379 761Z" />
<glyph unicode="&#xc4;" horiz-adv-x="625" d="M33 0L290 700H338L592 0H544L313 642V642L80 0H33ZM142 222L157 260H469L484 222H142ZM244 781Q228 781 216 792T204 821Q204 837 215 848T244 860Q260 860 271 849T283 821Q283 804 272 793T244 781ZM386 781Q369
781 358 792T346 821Q346 837 357 848T386 860Q402 860 413 849T424 821Q424 804 413 793T386 781Z" />
<glyph unicode="&#xc5;" horiz-adv-x="625" d="M33 0L290 700H338L592 0H544L313 642V642L80 0H33ZM142 222L157 260H469L484 222H142ZM313 770Q273 770 245 794T216 864Q216 909 244 934T313 959Q354 959 382 934T410 864Q410 820 382 795T313 770ZM313 799Q342
799 360 816T378 864Q378 895 360 912T313 930Q285 930 267 913T249 864Q249 834 267 817T313 799Z" />
<glyph unicode="&#xc6;" horiz-adv-x="881" d="M33 0L451 700H823V663H518V369H793V332H518V37H823V0H473V654V654L82 0H33ZM178 203L197 240H493V203H178Z" />
<glyph unicode="&#xc7;" horiz-adv-x="699" d="M374 -12Q275 -12 202 33T88 160T48 350Q48 459 88 540T201 666T374 712Q489 712 559 660T651 511H601Q583 583 528 627T374 671Q291 671 229 633T131 523T95 350Q95 249 130 178T228 68T374 29Q471 29 527 73T601
190H651Q629 94 559 41T374 -12ZM300 -255V-222H375Q420 -222 439 -207T458 -163Q458 -138 439 -123T375 -107H335V7H370V-75Q411 -73 440 -83T484 -114T499 -162Q499 -189 486 -210T447 -243T386 -255H300Z" />
<glyph unicode="&#xc8;" horiz-adv-x="547" d="M77 0V700H488V662H122V370H458V331H122V38H488V0H77ZM375 743L184 863L191 906V906L380 780L375 743Z" />
<glyph unicode="&#xc9;" horiz-adv-x="547" d="M77 0V700H488V662H122V370H458V331H122V38H488V0H77ZM189 743L184 780L373 906V906L380 863L189 743Z" />
<glyph unicode="&#xca;" horiz-adv-x="547" d="M77 0V700H488V662H122V370H458V331H122V38H488V0H77ZM153 763V805L282 888L411 805V763L282 847L153 763Z" />
<glyph unicode="&#xcb;" horiz-adv-x="547" d="M77 0V700H488V662H122V370H458V331H122V38H488V0H77ZM213 781Q197 781 185 792T173 821Q173 837 184 848T213 860Q229 860 240 849T252 821Q252 804 241 793T213 781ZM355 781Q338 781 327 792T315 821Q315 837
326 848T355 860Q371 860 382 849T393 821Q393 804 382 793T355 781Z" />
<glyph unicode="&#xcc;" horiz-adv-x="199" d="M77 0V700H122V0H77ZM193 743L2 863L9 906V906L198 780L193 743Z" />
<glyph unicode="&#xcd;" horiz-adv-x="199" d="M77 0V700H122V0H77ZM7 743L2 780L191 906V906L198 863L7 743Z" />
<glyph unicode="&#xce;" horiz-adv-x="199" d="M77 0V700H122V0H77ZM227 763V805L356 888L485 805V763L356 847L227 763Z" />
<glyph unicode="&#xcf;" horiz-adv-x="199" d="M77 0V700H122V0H77ZM287 781Q271 781 259 792T247 821Q247 837 258 848T287 860Q303 860 314 849T326 821Q326 804 315 793T287 781ZM429 781Q412 781 401 792T389 821Q389 837 400 848T429 860Q445 860 456 849T467
821Q467 804 456 793T429 781Z" />
<glyph unicode="&#xd0;" horiz-adv-x="697" d="M10 330V371H376V330H10ZM105 0V700H289Q413 700 492 659T610 538T649 347Q649 244 613 166T498 44T293 0H105ZM150 38H291Q401 38 469 75T570 182T602 347Q602 444 571 514T471 623T291 662H150V38Z" />
<glyph unicode="&#xd1;" horiz-adv-x="656" d="M77 0V700H125L534 74V74V700H579V0H532L122 628V628V0H77ZM395 761Q369 761 353 773T323 796T288 808Q272 808 261 797T246 763H214Q218 801 238 822T290 843Q315 843 330 832T361 808T398 795Q414 795 426 806T441
840H472Q470 805 448 783T395 761Z" />
<glyph unicode="&#xd2;" horiz-adv-x="766" d="M382 -12Q282 -12 207 33T90 160T48 350Q48 457 90 538T207 666T382 712Q484 712 559 666T676 539T717 350Q717 242 676 161T560 34T382 -12ZM383 29Q466 29 531 67T633 177T670 350Q670 451 633 523T531 633T383
671Q300 671 235 633T133 523T95 350Q95 249 132 177T235 67T383 29ZM476 743L285 863L292 906V906L481 780L476 743Z" />
<glyph unicode="&#xd3;" horiz-adv-x="766" d="M382 -12Q282 -12 207 33T90 160T48 350Q48 457 90 538T207 666T382 712Q484 712 559 666T676 539T717 350Q717 242 676 161T560 34T382 -12ZM383 29Q466 29 531 67T633 177T670 350Q670 451 633 523T531 633T383
671Q300 671 235 633T133 523T95 350Q95 249 132 177T235 67T383 29ZM290 743L285 780L474 906V906L481 863L290 743Z" />
<glyph unicode="&#xd4;" horiz-adv-x="766" d="M382 -12Q282 -12 207 33T90 160T48 350Q48 457 90 538T207 666T382 712Q484 712 559 666T676 539T717 350Q717 242 676 161T560 34T382 -12ZM383 29Q466 29 531 67T633 177T670 350Q670 451 633 523T531 633T383
671Q300 671 235 633T133 523T95 350Q95 249 132 177T235 67T383 29ZM254 763V805L383 888L512 805V763L383 847L254 763Z" />
<glyph unicode="&#xd5;" horiz-adv-x="766" d="M382 -12Q282 -12 207 33T90 160T48 350Q48 457 90 538T207 666T382 712Q484 712 559 666T676 539T717 350Q717 242 676 161T560 34T382 -12ZM383 29Q466 29 531 67T633 177T670 350Q670 451 633 523T531 633T383
671Q300 671 235 633T133 523T95 350Q95 249 132 177T235 67T383 29ZM449 761Q423 761 407 773T377 796T342 808Q326 808 315 797T300 763H268Q272 801 292 822T344 843Q369 843 384 832T415 808T452 795Q468 795 480 806T495 840H526Q524 805 502 783T449 761Z"
/>
<glyph unicode="&#xd6;" horiz-adv-x="766" d="M382 -12Q282 -12 207 33T90 160T48 350Q48 457 90 538T207 666T382 712Q484 712 559 666T676 539T717 350Q717 242 676 161T560 34T382 -12ZM383 29Q466 29 531 67T633 177T670 350Q670 451 633 523T531 633T383
671Q300 671 235 633T133 523T95 350Q95 249 132 177T235 67T383 29ZM314 781Q298 781 286 792T274 821Q274 837 285 848T314 860Q330 860 341 849T353 821Q353 804 342 793T314 781ZM456 781Q439 781 428 792T416 821Q416 837 427 848T456 860Q472 860 483 849T494
821Q494 804 483 793T456 781Z" />
<glyph unicode="&#xd7;" horiz-adv-x="500" d="M107 120L79 148L221 291L82 429L111 457L250 319L393 461L421 433L277 291L416 152L388 124L248 263L107 120Z" />
<glyph unicode="&#xd8;" horiz-adv-x="768" d="M38 0L672 700H726L92 0H38ZM384 -12Q285 -12 210 33T93 160T51 350Q51 457 92 538T209 666T385 712Q486 712 561 666T678 539T720 350Q720 242 679 161T562 34T384 -12ZM385 29Q469 29 534 67T636 177T673 350Q673
451 636 523T534 633T385 671Q302 671 237 633T135 523T98 350Q98 249 135 177T237 67T385 29Z" />
<glyph unicode="&#xd9;" horiz-adv-x="629" d="M315 -12Q247 -12 192 15T103 100T70 249V700H115V250Q115 172 141 123T212 52T315 29Q374 29 418 51T488 123T513 250V700H558V249Q558 158 526 101T439 16T315 -12ZM407 743L216 863L223 906V906L412 780L407 743Z" />
<glyph unicode="&#xda;" horiz-adv-x="629" d="M315 -12Q247 -12 192 15T103 100T70 249V700H115V250Q115 172 141 123T212 52T315 29Q374 29 418 51T488 123T513 250V700H558V249Q558 158 526 101T439 16T315 -12ZM221 743L216 780L405 906V906L412 863L221 743Z" />
<glyph unicode="&#xdb;" horiz-adv-x="629" d="M315 -12Q247 -12 192 15T103 100T70 249V700H115V250Q115 172 141 123T212 52T315 29Q374 29 418 51T488 123T513 250V700H558V249Q558 158 526 101T439 16T315 -12ZM185 763V805L314 888L443 805V763L314 847L185 763Z" />
<glyph unicode="&#xdc;" horiz-adv-x="629" d="M315 -12Q247 -12 192 15T103 100T70 249V700H115V250Q115 172 141 123T212 52T315 29Q374 29 418 51T488 123T513 250V700H558V249Q558 158 526 101T439 16T315 -12ZM245 781Q229 781 217 792T205 821Q205 837 216
848T245 860Q261 860 272 849T284 821Q284 804 273 793T245 781ZM387 781Q370 781 359 792T347 821Q347 837 358 848T387 860Q403 860 414 849T425 821Q425 804 414 793T387 781Z" />
<glyph unicode="&#xdd;" horiz-adv-x="532" d="M245 0V293L23 700H73L274 324H262L458 700H509L290 293V0H245ZM174 743L169 780L358 906V906L365 863L174 743Z" />
<glyph unicode="&#xde;" horiz-adv-x="550" d="M77 0V700H122V545H282Q364 545 414 520T488 450T512 350Q512 295 488 251T413 182T282 157H122V0H77ZM122 196H280Q378 196 422 237T466 351Q466 426 422 466T279 507H122V196Z" />
<glyph unicode="&#xdf;" horiz-adv-x="616" d="M405 -10Q322 -10 273 37T217 164H263Q268 104 303 66T405 28Q463 28 495 58T528 138Q528 182 502 210T415 257Q339 283 307 309T275 379Q275 410 290 431T329 466T375 495T414 528T430 578Q430 630 390 661T278
692Q198 692 158 647T118 523V0H73V530Q73 588 95 633T163 705T279 732Q344 732 388 711T454 656T476 581Q476 544 461 521T422 482T375 453T336 423T321 384Q321 365 331 350T367 322T441 293Q514 271 544 234T575 141Q575 97 556 63T498 10T405 -10Z" />
<glyph unicode="&#xe0;" horiz-adv-x="506" d="M223 -12Q166 -12 127 10T68 67T48 144Q48 199 73 234T143 286T249 304H401Q401 358 386 396T338 455T254 476Q193 476 154 447T104 359H57Q64 412 92 446T163 498T254 516Q323 516 365 489T426 415T446 309V0H406L402
101V101Q394 85 380 65T344 28T294 0T223 -12ZM228 29Q271 29 303 45T357 89T390 149T401 212V265H253Q193 265 159 250T111 207T96 145Q96 113 111 87T156 45T228 29ZM341 547L150 667L157 709V709L346 583L341 547Z" />
<glyph unicode="&#xe1;" horiz-adv-x="506" d="M223 -12Q166 -12 127 10T68 67T48 144Q48 199 73 234T143 286T249 304H401Q401 358 386 396T338 455T254 476Q193 476 154 447T104 359H57Q64 412 92 446T163 498T254 516Q323 516 365 489T426 415T446 309V0H406L402
101V101Q394 85 380 65T344 28T294 0T223 -12ZM228 29Q271 29 303 45T357 89T390 149T401 212V265H253Q193 265 159 250T111 207T96 145Q96 113 111 87T156 45T228 29ZM155 547L150 583L339 709V709L346 667L155 547Z" />
<glyph unicode="&#xe2;" horiz-adv-x="506" d="M223 -12Q166 -12 127 10T68 67T48 144Q48 199 73 234T143 286T249 304H401Q401 358 386 396T338 455T254 476Q193 476 154 447T104 359H57Q64 412 92 446T163 498T254 516Q323 516 365 489T426 415T446 309V0H406L402
101V101Q394 85 380 65T344 28T294 0T223 -12ZM228 29Q271 29 303 45T357 89T390 149T401 212V265H253Q193 265 159 250T111 207T96 145Q96 113 111 87T156 45T228 29ZM119 550V590L248 674L377 590V550L248 634L119 550Z" />
<glyph unicode="&#xe3;" horiz-adv-x="506" d="M223 -12Q166 -12 127 10T68 67T48 144Q48 199 73 234T143 286T249 304H401Q401 358 386 396T338 455T254 476Q193 476 154 447T104 359H57Q64 412 92 446T163 498T254 516Q323 516 365 489T426 415T446 309V0H406L402
101V101Q394 85 380 65T344 28T294 0T223 -12ZM228 29Q271 29 303 45T357 89T390 149T401 212V265H253Q193 265 159 250T111 207T96 145Q96 113 111 87T156 45T228 29ZM300 570Q274 570 258 582T228 605T193 617Q177 617 166 606T151 572H119Q123 610 143 631T195
652Q220 652 235 641T266 617T303 604Q319 604 331 615T346 649H377Q375 614 353 592T300 570Z" />
<glyph unicode="&#xe4;" horiz-adv-x="506" d="M223 -12Q166 -12 127 10T68 67T48 144Q48 199 73 234T143 286T249 304H401Q401 358 386 396T338 455T254 476Q193 476 154 447T104 359H57Q64 412 92 446T163 498T254 516Q323 516 365 489T426 415T446 309V0H406L402
101V101Q394 85 380 65T344 28T294 0T223 -12ZM228 29Q271 29 303 45T357 89T390 149T401 212V265H253Q193 265 159 250T111 207T96 145Q96 113 111 87T156 45T228 29ZM179 570Q163 570 151 581T139 609Q139 626 150 637T179 649Q195 649 206 637T218 609Q218 593
207 582T179 570ZM320 570Q303 570 292 581T280 609Q280 626 291 637T320 649Q336 649 347 637T359 609Q359 593 348 582T320 570Z" />
<glyph unicode="&#xe5;" horiz-adv-x="506" d="M223 -12Q166 -12 127 10T68 67T48 144Q48 199 73 234T143 286T249 304H401Q401 358 386 396T338 455T254 476Q193 476 154 447T104 359H57Q64 412 92 446T163 498T254 516Q323 516 365 489T426 415T446 309V0H406L402
101V101Q394 85 380 65T344 28T294 0T223 -12ZM228 29Q271 29 303 45T357 89T390 149T401 212V265H253Q193 265 159 250T111 207T96 145Q96 113 111 87T156 45T228 29ZM248 570Q208 570 180 594T151 664Q151 709 179 734T248 759Q289 759 317 734T345 664Q345 620
317 595T248 570ZM248 599Q277 599 295 616T313 664Q313 695 295 712T248 730Q220 730 202 713T184 664Q184 634 202 617T248 599Z" />
<glyph unicode="&#xe6;" horiz-adv-x="893" d="M222 -12Q166 -12 127 10T68 67T48 144Q48 199 73 233T143 285T247 302H400Q400 357 385 395T337 455T254 476Q195 476 156 447T107 359H60Q67 412 95 446T165 498T254 516Q330 516 373 482T432 392Q460 452 512
484T631 516Q704 516 752 484T825 398T850 283Q850 274 850 265T849 244H446Q447 171 473 123T540 51T629 28Q694 28 734 59T795 147H839Q826 101 799 65T729 9T629 -12Q555 -12 502 26T423 130Q410 88 382 56T313 6T222 -12ZM226 29Q281 29 319 55T378 122T400
211V264H251Q192 264 158 249T110 207T96 145Q96 113 111 87T156 45T226 29ZM446 282H807Q805 379 756 427T630 476Q584 476 543 455T476 392T446 282Z" />
<glyph unicode="&#xe7;" horiz-adv-x="546" d="M285 -12Q217 -12 163 20T79 112T48 251Q48 332 79 391T165 483T285 516Q370 516 426 472T498 359H451Q439 413 395 444T286 475Q237 475 193 451T122 377T95 251Q95 193 111 151T154 82T216 41T286 28Q327 28 361
41T420 81T451 145H498Q484 77 429 33T285 -12ZM223 -255V-222H298Q343 -222 362 -207T381 -163Q381 -138 362 -123T298 -107H258V7H293V-75Q334 -73 363 -83T407 -114T422 -162Q422 -189 409 -210T370 -243T309 -255H223Z" />
<glyph unicode="&#xe8;" horiz-adv-x="543" d="M278 -12Q208 -12 156 21T76 114T48 255Q48 337 77 395T159 484T280 516Q353 516 402 484T476 398T501 282Q501 272 501 263T500 242H80V281H457Q456 378 406 427T278 476Q231 476 189 454T120 386T93 269V251Q93
175 119 126T187 52T278 28Q341 28 382 58T442 141H488Q474 97 447 62T377 8T278 -12ZM367 547L176 667L183 709V709L372 583L367 547Z" />
<glyph unicode="&#xe9;" horiz-adv-x="543" d="M278 -12Q208 -12 156 21T76 114T48 255Q48 337 77 395T159 484T280 516Q353 516 402 484T476 398T501 282Q501 272 501 263T500 242H80V281H457Q456 378 406 427T278 476Q231 476 189 454T120 386T93 269V251Q93
175 119 126T187 52T278 28Q341 28 382 58T442 141H488Q474 97 447 62T377 8T278 -12ZM181 547L176 583L365 709V709L372 667L181 547Z" />
<glyph unicode="&#xea;" horiz-adv-x="543" d="M278 -12Q208 -12 156 21T76 114T48 255Q48 337 77 395T159 484T280 516Q353 516 402 484T476 398T501 282Q501 272 501 263T500 242H80V281H457Q456 378 406 427T278 476Q231 476 189 454T120 386T93 269V251Q93
175 119 126T187 52T278 28Q341 28 382 58T442 141H488Q474 97 447 62T377 8T278 -12ZM146 550V590L275 674L404 590V550L275 634L146 550Z" />
<glyph unicode="&#xeb;" horiz-adv-x="543" d="M278 -12Q208 -12 156 21T76 114T48 255Q48 337 77 395T159 484T280 516Q353 516 402 484T476 398T501 282Q501 272 501 263T500 242H80V281H457Q456 378 406 427T278 476Q231 476 189 454T120 386T93 269V251Q93
175 119 126T187 52T278 28Q341 28 382 58T442 141H488Q474 97 447 62T377 8T278 -12ZM206 570Q190 570 178 581T166 609Q166 626 177 637T206 649Q222 649 233 637T245 609Q245 593 234 582T206 570ZM347 570Q330 570 319 581T307 609Q307 626 318 637T347 649Q363
649 374 637T386 609Q386 593 375 582T347 570Z" />
<glyph unicode="&#xec;" horiz-adv-x="186" d="M71 0V504H116V0H71ZM442 547L251 667L258 709V709L447 583L442 547Z" />
<glyph unicode="&#xed;" horiz-adv-x="186" d="M71 0V504H116V0H71ZM256 547L251 583L440 709V709L447 667L256 547Z" />
<glyph unicode="&#xee;" horiz-adv-x="186" d="M71 0V504H116V0H71ZM220 550V590L349 674L478 590V550L349 634L220 550Z" />
<glyph unicode="&#xef;" horiz-adv-x="186" d="M71 0V504H116V0H71ZM280 570Q264 570 252 581T240 609Q240 626 251 637T280 649Q296 649 307 637T319 609Q319 593 308 582T280 570ZM421 570Q404 570 393 581T381 609Q381 626 392 637T421 649Q437 649 448 637T460
609Q460 593 449 582T421 570Z" />
<glyph unicode="&#xf0;" horiz-adv-x="593" d="M295 -12Q223 -12 168 21T80 113T48 251Q48 330 80 389T169 480T294 513Q350 513 399 491T480 424Q465 464 447 498T403 565T345 631T267 700H319Q376 654 419 605T489 501T531 387T545 259Q545 177 512 116T423
21T295 -12ZM295 28Q349 28 395 53T470 129T499 252Q499 323 471 372T396 447T297 473Q244 473 198 448T124 373T95 252Q95 179 123 129T197 54T295 28ZM223 567V603L506 708V671L223 567Z" />
<glyph unicode="&#xf1;" horiz-adv-x="538" d="M71 0V504H111L115 402V402Q141 459 187 487T291 516Q346 516 388 494T454 427T478 309V0H433V302Q433 391 395 433T285 475Q237 475 199 452T138 383T116 272V0H71ZM332 570Q306 570 290 582T260 605T225 617Q209
617 198 606T183 572H151Q155 610 175 631T227 652Q252 652 267 641T298 617T335 604Q351 604 363 615T378 649H409Q407 614 385 592T332 570Z" />
<glyph unicode="&#xf2;" horiz-adv-x="581" d="M289 -12Q220 -12 166 20T80 111T48 251Q48 334 80 393T167 484T291 516Q361 516 415 484T501 393T533 251Q533 171 501 112T414 20T289 -12ZM289 28Q341 28 385 53T458 128T486 252Q486 326 459 376T387 450T291
475Q240 475 195 450T123 376T95 252Q95 178 122 128T194 53T289 28ZM384 547L193 667L200 709V709L389 583L384 547Z" />
<glyph unicode="&#xf3;" horiz-adv-x="581" d="M289 -12Q220 -12 166 20T80 111T48 251Q48 334 80 393T167 484T291 516Q361 516 415 484T501 393T533 251Q533 171 501 112T414 20T289 -12ZM289 28Q341 28 385 53T458 128T486 252Q486 326 459 376T387 450T291
475Q240 475 195 450T123 376T95 252Q95 178 122 128T194 53T289 28ZM198 547L193 583L382 709V709L389 667L198 547Z" />
<glyph unicode="&#xf4;" horiz-adv-x="581" d="M289 -12Q220 -12 166 20T80 111T48 251Q48 334 80 393T167 484T291 516Q361 516 415 484T501 393T533 251Q533 171 501 112T414 20T289 -12ZM289 28Q341 28 385 53T458 128T486 252Q486 326 459 376T387 450T291
475Q240 475 195 450T123 376T95 252Q95 178 122 128T194 53T289 28ZM162 550V590L291 674L420 590V550L291 634L162 550Z" />
<glyph unicode="&#xf5;" horiz-adv-x="581" d="M289 -12Q220 -12 166 20T80 111T48 251Q48 334 80 393T167 484T291 516Q361 516 415 484T501 393T533 251Q533 171 501 112T414 20T289 -12ZM289 28Q341 28 385 53T458 128T486 252Q486 326 459 376T387 450T291
475Q240 475 195 450T123 376T95 252Q95 178 122 128T194 53T289 28ZM343 570Q317 570 301 582T271 605T236 617Q220 617 209 606T194 572H162Q166 610 186 631T238 652Q263 652 278 641T309 617T346 604Q362 604 374 615T389 649H420Q418 614 396 592T343 570Z"
/>
<glyph unicode="&#xf6;" horiz-adv-x="581" d="M289 -12Q220 -12 166 20T80 111T48 251Q48 334 80 393T167 484T291 516Q361 516 415 484T501 393T533 251Q533 171 501 112T414 20T289 -12ZM289 28Q341 28 385 53T458 128T486 252Q486 326 459 376T387 450T291
475Q240 475 195 450T123 376T95 252Q95 178 122 128T194 53T289 28ZM222 570Q206 570 194 581T182 609Q182 626 193 637T222 649Q238 649 249 637T261 609Q261 593 250 582T222 570ZM363 570Q346 570 335 581T323 609Q323 626 334 637T363 649Q379 649 390 637T402
609Q402 593 391 582T363 570Z" />
<glyph unicode="&#xf7;" horiz-adv-x="500" d="M65 272V311H435V272H65ZM250 134Q233 134 221 146T208 176Q208 194 220 206T250 218Q268 218 280 206T292 176Q292 159 280 147T250 134ZM250 366Q233 366 221 378T208 409Q208 426 220 438T250 451Q268 451 280
439T292 408Q292 391 280 379T250 366Z" />
<glyph unicode="&#xf8;" horiz-adv-x="590" d="M43 0L485 504H535L93 0H43ZM296 -12Q228 -12 174 20T88 111T56 251Q56 334 88 393T175 484T298 516Q369 516 423 484T509 393T541 251Q541 171 509 112T421 20T296 -12ZM297 28Q348 28 393 53T466 128T494 252Q494
326 467 376T395 450T299 475Q248 475 203 450T131 376T103 252Q103 178 130 128T201 53T297 28Z" />
<glyph unicode="&#xf9;" horiz-adv-x="538" d="M247 -12Q193 -12 151 9T84 76T60 195V504H105V202Q105 113 143 71T255 29Q304 29 341 52T400 121T422 232V504H467V0H428L422 102V102Q397 44 350 16T247 -12ZM357 547L166 667L173 709V709L362 583L357 547Z" />
<glyph unicode="&#xfa;" horiz-adv-x="538" d="M247 -12Q193 -12 151 9T84 76T60 195V504H105V202Q105 113 143 71T255 29Q304 29 341 52T400 121T422 232V504H467V0H428L422 102V102Q397 44 350 16T247 -12ZM171 547L166 583L355 709V709L362 667L171 547Z" />
<glyph unicode="&#xfb;" horiz-adv-x="538" d="M247 -12Q193 -12 151 9T84 76T60 195V504H105V202Q105 113 143 71T255 29Q304 29 341 52T400 121T422 232V504H467V0H428L422 102V102Q397 44 350 16T247 -12ZM135 550V590L264 674L393 590V550L264 634L135 550Z" />
<glyph unicode="&#xfc;" horiz-adv-x="538" d="M247 -12Q193 -12 151 9T84 76T60 195V504H105V202Q105 113 143 71T255 29Q304 29 341 52T400 121T422 232V504H467V0H428L422 102V102Q397 44 350 16T247 -12ZM195 570Q179 570 167 581T155 609Q155 626 166 637T195
649Q211 649 222 637T234 609Q234 593 223 582T195 570ZM336 570Q319 570 308 581T296 609Q296 626 307 637T336 649Q352 649 363 637T375 609Q375 593 364 582T336 570Z" />
<glyph unicode="&#xfd;" horiz-adv-x="518" d="M117 -220L244 56H227L20 504H70L259 90V90L450 504H498L164 -220H117ZM166 547L161 583L350 709V709L357 667L166 547Z" />
<glyph unicode="&#xfe;" horiz-adv-x="603" d="M71 -212V713H116V382Q130 419 158 449T226 497T316 516Q390 516 443 482T526 388T555 252Q555 175 526 116T444 22T316 -12Q246 -12 194 23T116 120V-212H71ZM314 29Q371 29 414 56T483 133T508 252Q508 320 483
370T415 447T314 475Q257 475 213 447T144 368T119 252Q119 186 144 136T213 57T314 29Z" />
<glyph unicode="&#xff;" horiz-adv-x="518" d="M117 -220L244 56H227L20 504H70L259 90V90L450 504H498L164 -220H117ZM191 570Q175 570 163 581T151 609Q151 626 162 637T191 649Q207 649 218 637T230 609Q230 593 219 582T191 570ZM332 570Q315 570 304 581T292
609Q292 626 303 637T332 649Q348 649 359 637T371 609Q371 593 360 582T332 570Z" />
<glyph unicode="&#x2013;" horiz-adv-x="644" d="M67 276V315H577V276H67Z" />
<glyph unicode="&#x2014;" horiz-adv-x="836" d="M67 276V315H769V276H67Z" />
<glyph unicode="&#x2018;" horiz-adv-x="176" d="M30 490L111 700H146L88 490H30Z" />
<glyph unicode="&#x2019;" horiz-adv-x="176" d="M146 700L66 490H30L89 700H146Z" />
<glyph unicode="&#x201a;" horiz-adv-x="144" d="M-2 -129L57 78H115L33 -129H-2Z" />
<glyph unicode="&#x201c;" horiz-adv-x="302" d="M155 490L237 700H272L212 490H155ZM30 490L111 700H146L88 490H30Z" />
<glyph unicode="&#x201d;" horiz-adv-x="302" d="M148 700L66 490H30L90 700H148ZM272 700L192 490H156L215 700H272Z" />
<glyph unicode="&#x201e;" horiz-adv-x="273" d="M-2 -129L57 78H115L33 -129H-2ZM128 -129L185 78H243L162 -129H128Z" />
<glyph unicode="&#x2022;" horiz-adv-x="336" d="M167 227Q139 227 115 241T76 280T61 333Q61 363 75 387T114 426T167 441Q197 441 221 427T260 388T275 333Q275 304 261 280T222 241T167 227Z" />
<glyph unicode="&#x2039;" horiz-adv-x="248" d="M149 120L46 295L149 470H198L93 295L198 120H149Z" />
<glyph unicode="&#x203a;" horiz-adv-x="248" d="M100 120H51L156 295L51 470H100L203 295L100 120Z" />
</font>
</defs>
</svg>
