<svg width="50" height="49" viewBox="0 0 50 49" fill="none" xmlns="http://www.w3.org/2000/svg">
<path d="M9.60273 21.1475L8.7262 26.871H10.4519L9.63012 21.1475H9.60273Z" fill="white"/>
<path d="M24.9904 0.760742C11.5959 0.760742 0.748779 11.5537 0.748779 24.8814C0.748779 38.2091 11.5959 49.0021 24.9904 49.0021C38.3849 49.0021 49.232 38.1819 49.232 24.8814C49.232 11.581 38.3575 0.760742 24.9904 0.760742ZM11.1576 31.6134L10.7467 29.1332H8.41844L8.06235 31.6134H5.04927L7.84322 18.8035H11.4315L14.1981 31.6134H11.1576ZM17.759 31.6134H15.0472V22.0741H17.759V31.6134ZM17.759 21.1202H15.0472V18.8035H17.759V21.1202ZM22.1143 31.6134H19.4025V22.0741H22.1143V31.6134ZM22.1143 21.1202H19.4025V18.8035H22.1143V21.1202ZM35.2075 31.6134H32.3588L32.6601 21.5836H32.6327L30.5235 31.6134H28.3048L26.2504 21.5836H26.223L26.4969 31.6134H23.6482V18.8035H27.8665L29.4005 26.3804H29.4278L31.0166 18.8035H35.1801V31.6134H35.2075ZM40.1928 31.9132C38.1384 31.9132 36.3032 30.932 36.3032 28.6971V27.3344H39.0697C39.0697 28.2883 38.878 29.6238 40.2475 29.6238C40.9597 29.6238 41.261 28.9424 41.261 28.3428C41.261 25.9716 36.4675 26.3804 36.4675 22.1559C36.4675 19.812 37.8919 18.531 40.2202 18.531C42.795 18.531 44.0002 20.2481 44.0002 22.6738H41.261C41.2336 21.9924 41.2337 20.8204 40.2749 20.8204C39.7545 20.8204 39.2341 21.0657 39.2341 21.6653C39.2341 24.3908 44.0276 23.3279 44.0276 28.0975C44.0276 30.5505 42.658 31.9132 40.1928 31.9132Z" fill="white"/>
</svg>
