<svg width="79" height="79" viewBox="0 0 79 79" fill="none" xmlns="http://www.w3.org/2000/svg">
<circle cx="39.5" cy="39.5" r="36.757" fill="#09364B" stroke="#FDB813" stroke-width="5.48591"/>
<g clip-path="url(#clip0_2002_12)">
<path d="M51.6644 25.3337C46.399 20.0683 37.8304 20.0683 32.565 25.3337C30.0149 27.8838 28.6104 31.2769 28.6104 34.8841C28.6104 38.0272 29.677 41.0049 31.6378 43.4085L31.2615 43.7849C30.7676 43.3039 30.1158 43.0377 29.4218 43.0377C28.7168 43.0377 28.054 43.3112 27.5565 43.8087L20.5469 50.8183C18.9937 52.3715 18.9937 54.8996 20.5469 56.4527C21.3235 57.2293 22.3443 57.6185 23.3633 57.6185C24.3841 57.6185 25.403 57.2311 26.1796 56.4527L33.1892 49.4431C34.21 48.4223 34.2173 46.77 33.213 45.74L33.5894 45.3636C35.9908 47.3244 38.9704 48.3911 42.1138 48.3911C45.7214 48.3911 49.1126 46.9866 51.6642 44.4365C54.2143 41.8863 55.6188 38.4933 55.6188 34.8861C55.6188 31.2784 54.2143 27.8873 51.6642 25.3357L51.6644 25.3337ZM24.2263 54.4977C23.7508 54.9732 22.9779 54.9732 22.5005 54.4977C22.025 54.0222 22.025 53.2493 22.5005 52.7719L29.4222 45.8502L31.148 47.576L24.2263 54.4977ZM49.7111 42.4798C45.5233 46.6676 38.7084 46.6676 34.5207 42.4798C32.492 40.4511 31.3739 37.7539 31.3739 34.8846C31.3739 32.015 32.492 29.3179 34.5207 27.2894C36.6155 25.1964 39.3659 24.1481 42.1159 24.1481C44.8661 24.1481 47.6163 25.1946 49.7111 27.2894C51.7398 29.3181 52.8579 32.0152 52.8579 34.8846C52.8579 37.7542 51.7398 40.4513 49.7111 42.4798ZM48.1285 30.2541C48.6682 30.7939 48.6682 31.6696 48.1285 32.2075L40.8233 39.5128C40.5626 39.7735 40.2101 39.9167 39.8466 39.9167C39.786 39.9167 39.7254 39.913 39.6667 39.9056C39.2407 39.8506 38.8644 39.599 38.6495 39.2264L35.8846 34.438C35.5027 33.7771 35.7304 32.9325 36.3895 32.5507C37.0504 32.1688 37.8949 32.3964 38.2768 33.0555L40.1403 36.2831L46.1713 30.2521C46.7111 29.7123 47.5868 29.7123 48.1247 30.2521L48.1285 30.2541Z" fill="#FDB813"/>
</g>
<defs>
<clipPath id="clip0_2002_12">
<rect width="47" height="47" fill="white" transform="translate(14 16)"/>
</clipPath>
</defs>
</svg>
