<svg width="1050" height="124" viewBox="0 0 1050 124" fill="none" xmlns="http://www.w3.org/2000/svg">
<path fill-rule="evenodd" clip-rule="evenodd" d="M6.05169 113.741C3.91041 115.834 1.93973 117.893 0.147217 119.911L3.85265 123.203C5.56022 121.281 7.44952 119.306 9.5162 117.286C10.4951 116.33 10.5131 114.76 9.55642 113.782C8.59972 112.803 7.0306 112.785 6.05169 113.741ZM768.687 117.635C763.249 117.695 757.772 117.678 752.26 117.584C750.892 117.561 749.763 118.651 749.74 120.02C749.716 121.389 750.807 122.517 752.176 122.54C757.733 122.635 763.257 122.652 768.741 122.592C770.11 122.577 771.207 121.455 771.193 120.086C771.178 118.718 770.056 117.62 768.687 117.635ZM782.712 119.798C782.766 121.166 783.918 122.231 785.286 122.177C790.835 121.959 796.339 121.663 801.795 121.291C803.161 121.198 804.192 120.016 804.099 118.65C804.006 117.285 802.824 116.253 801.458 116.346C796.05 116.715 790.593 117.008 785.091 117.224C783.723 117.278 782.658 118.43 782.712 119.798ZM738.267 119.665C738.328 118.297 737.269 117.139 735.902 117.078C730.477 116.835 725.023 116.516 719.544 116.119C718.179 116.02 716.992 117.047 716.893 118.412C716.794 119.777 717.821 120.964 719.186 121.063C724.711 121.463 730.21 121.785 735.68 122.03C737.047 122.091 738.205 121.032 738.267 119.665ZM815.548 117.703C815.681 119.065 816.893 120.062 818.256 119.929C823.786 119.389 829.26 118.771 834.672 118.078C836.03 117.904 836.99 116.663 836.816 115.305C836.642 113.947 835.4 112.988 834.043 113.161C828.679 113.848 823.255 114.46 817.774 114.995C816.412 115.128 815.415 116.341 815.548 117.703ZM705.417 117.422C705.554 116.06 704.56 114.845 703.198 114.709C697.778 114.166 692.336 113.546 686.877 112.847C685.519 112.673 684.278 113.633 684.104 114.991C683.93 116.348 684.89 117.59 686.248 117.764C691.752 118.468 697.239 119.093 702.704 119.641C704.066 119.777 705.281 118.784 705.417 117.422ZM848.236 113.663C848.452 115.015 849.723 115.935 851.074 115.719C856.585 114.839 862.023 113.88 867.385 112.844C868.729 112.585 869.609 111.285 869.349 109.941C869.09 108.597 867.79 107.718 866.446 107.977C861.137 109.002 855.75 109.953 850.292 110.825C848.941 111.041 848.02 112.311 848.236 113.663ZM672.74 113.377C672.951 112.025 672.026 110.757 670.673 110.546C665.3 109.708 659.913 108.792 654.515 107.797C653.169 107.549 651.877 108.439 651.629 109.785C651.381 111.131 652.271 112.423 653.617 112.671C659.06 113.675 664.491 114.598 669.909 115.444C671.261 115.655 672.529 114.729 672.74 113.377ZM640.325 107.538C640.61 106.2 639.756 104.883 638.418 104.598C633.094 103.463 627.764 102.25 622.429 100.956C621.098 100.634 619.758 101.45 619.436 102.781C619.113 104.111 619.93 105.451 621.261 105.773C626.641 107.078 632.016 108.301 637.384 109.446C638.723 109.731 640.04 108.877 640.325 107.538ZM880.619 107.57C880.924 108.904 882.253 109.739 883.587 109.435C889.036 108.191 894.395 106.867 899.658 105.467C900.981 105.115 901.768 103.758 901.416 102.435C901.065 101.112 899.707 100.325 898.384 100.677C893.179 102.062 887.877 103.371 882.484 104.602C881.149 104.907 880.315 106.236 880.619 107.57ZM18.3902 106.022C19.2481 107.088 20.8082 107.257 21.8747 106.399C25.9209 103.145 30.3475 99.8306 35.1347 96.4885C36.257 95.705 36.5317 94.16 35.7481 93.0376C34.9646 91.9153 33.4196 91.6407 32.2973 92.4242C27.4258 95.8252 22.9086 99.2063 18.7679 102.537C17.7014 103.395 17.5323 104.955 18.3902 106.022ZM608.308 99.9179C608.668 98.5972 607.889 97.2351 606.568 96.8755C601.314 95.4452 596.059 93.9355 590.805 92.3449C589.495 91.9483 588.111 92.6888 587.714 93.9988C587.318 95.3089 588.058 96.6924 589.368 97.089C594.667 98.6932 599.967 100.216 605.266 101.658C606.587 102.018 607.949 101.239 608.308 99.9179ZM912.478 99.2709C912.88 100.579 914.266 101.315 915.575 100.913C920.936 99.2674 926.182 97.5402 931.307 95.7356C932.598 95.2809 933.276 93.8658 932.821 92.5747C932.367 91.2836 930.952 90.6056 929.661 91.0602C924.601 92.8419 919.419 94.5481 914.12 96.1743C912.812 96.576 912.077 97.9623 912.478 99.2709ZM576.727 90.502C577.161 89.2037 576.46 87.7998 575.162 87.3661C570.007 85.6446 564.857 83.8433 559.713 81.9607C558.428 81.4903 557.004 82.151 556.534 83.4364C556.063 84.7218 556.724 86.1451 558.01 86.6156C563.198 88.5144 568.393 90.3312 573.592 92.0676C574.89 92.5012 576.294 91.8003 576.727 90.502ZM943.591 88.5173C944.102 89.7868 945.546 90.4013 946.816 89.8897C952.045 87.7824 957.126 85.5904 962.049 83.3189C963.292 82.7454 963.835 81.273 963.262 80.0301C962.688 78.7873 961.216 78.2446 959.973 78.8181C955.126 81.0544 950.12 83.2142 944.963 85.2922C943.693 85.8038 943.079 87.2477 943.591 88.5173ZM45.644 86.5367C46.3658 87.6997 47.8937 88.0574 49.0567 87.3356C53.606 84.5122 58.3941 81.6902 63.4087 78.888C64.6036 78.2203 65.0309 76.7104 64.3632 75.5155C63.6955 74.3206 62.1856 73.8933 60.9907 74.561C55.9121 77.399 51.0587 80.2594 46.4429 83.124C45.2799 83.8458 44.9222 85.3737 45.644 86.5367ZM545.784 79.3263C546.291 78.0549 545.671 76.6131 544.4 76.106C539.335 74.0855 534.279 71.9842 529.235 69.8005C527.979 69.2568 526.519 69.8342 525.976 71.0904C525.432 72.3465 526.009 73.8056 527.266 74.3494C532.354 76.5522 537.454 78.6719 542.563 80.71C543.835 81.2171 545.277 80.5976 545.784 79.3263ZM973.586 74.9252C974.228 76.1343 975.728 76.5945 976.937 75.953C981.954 73.2915 986.772 70.5405 991.378 67.7068C992.544 66.9896 992.907 65.4631 992.19 64.2972C991.473 63.1314 989.947 62.7677 988.781 63.4849C984.268 66.2608 979.543 68.9596 974.614 71.5743C973.405 72.2158 972.945 73.716 973.586 74.9252ZM74.7553 69.9894C75.3737 71.2105 76.865 71.6991 78.0861 71.0806C82.9213 68.6318 87.9267 66.2125 93.0933 63.8356C94.3368 63.2635 94.8811 61.7917 94.3091 60.5483C93.737 59.3048 92.2652 58.7604 91.0217 59.3325C85.7992 61.7351 80.7378 64.1814 75.8465 66.6587C74.6254 67.2771 74.1369 68.7683 74.7553 69.9894ZM515.512 66.3795C516.092 65.1396 515.557 63.6644 514.317 63.0844C511.838 61.9244 509.361 60.7439 506.889 59.5427C504.335 58.3021 501.781 57.0896 499.226 55.9049C497.984 55.329 496.511 55.8689 495.935 57.1106C495.359 58.3524 495.899 59.8258 497.141 60.4016C499.669 61.5739 502.196 62.7736 504.723 64.0012C507.217 65.213 509.715 66.4039 512.217 67.5742C513.457 68.1542 514.932 67.6193 515.512 66.3795ZM1001.77 57.9224C1002.57 59.0313 1004.12 59.2799 1005.23 58.4775C1009.86 55.1265 1014.21 51.6796 1018.27 48.1458C1019.3 47.247 1019.41 45.6816 1018.51 44.6492C1017.61 43.6169 1016.05 43.5086 1015.02 44.4073C1011.08 47.8369 1006.84 51.1918 1002.32 54.4617C1001.21 55.264 1000.96 56.8134 1001.77 57.9224ZM105.128 55.8048C105.655 57.0679 107.107 57.6641 108.37 57.1365C113.41 55.0312 118.58 52.9725 123.874 50.9706C125.154 50.4864 125.799 49.056 125.315 47.7758C124.831 46.4955 123.4 45.8502 122.12 46.3344C116.774 48.3562 111.552 50.4357 106.459 52.5627C105.196 53.0903 104.6 54.5418 105.128 55.8048ZM136.429 43.7826C136.871 45.0782 138.279 45.7705 139.575 45.329C144.766 43.56 150.059 41.8498 155.45 40.2066C156.759 39.8075 157.497 38.4226 157.098 37.1133C156.699 35.804 155.314 35.0661 154.004 35.4652C148.562 37.1242 143.217 38.851 137.976 40.6372C136.68 41.0787 135.988 42.487 136.429 43.7826ZM322.58 15.8297C322.629 14.4617 321.559 13.3137 320.191 13.2654C314.541 13.0659 308.923 12.9672 303.342 12.9644C301.973 12.9638 300.863 14.0728 300.862 15.4416C300.862 16.8104 301.971 17.9205 303.34 17.9212C308.864 17.9239 314.424 18.0216 320.016 18.219C321.384 18.2673 322.532 17.1976 322.58 15.8297Z" fill="#EDF1F3"/>
<ellipse cx="9.64232" cy="9.64" rx="9.64232" ry="9.64" transform="matrix(1 0 0 -1 1005.08 55.9966)" fill="#EDF1F3"/>
</svg>
