<svg width="985" height="140" viewBox="0 0 985 140" fill="none" xmlns="http://www.w3.org/2000/svg">
<ellipse cx="9.64232" cy="9.64" rx="9.64232" ry="9.64" transform="matrix(1 0 0 -1 965.625 139.287)" fill="#084E6F"/>
<path fill-rule="evenodd" clip-rule="evenodd" d="M708.558 9.95814C708.57 8.58941 709.689 7.48912 711.057 7.50058C716.507 7.54617 721.916 7.67292 727.28 7.8782C728.648 7.93055 729.714 9.08178 729.662 10.4495C729.61 11.8173 728.459 12.8837 727.091 12.8313C721.776 12.6279 716.416 12.5024 711.016 12.4572C709.647 12.4457 708.547 11.3269 708.558 9.95814ZM697.351 10.0303C697.38 11.3988 696.294 12.5316 694.926 12.5606C689.602 12.6733 684.245 12.8644 678.857 13.1364C677.49 13.2054 676.326 12.1531 676.257 10.7861C676.188 9.41903 677.24 8.25489 678.607 8.18589C684.043 7.91151 689.449 7.71866 694.821 7.60493C696.189 7.57595 697.322 8.66182 697.351 10.0303ZM740.833 11.0463C740.927 9.6807 742.11 8.64978 743.476 8.74363C748.914 9.1174 754.3 9.57204 759.629 10.1047C760.991 10.2408 761.985 11.4553 761.849 12.8173C761.713 14.1793 760.498 15.173 759.136 15.0369C753.858 14.5093 748.523 14.059 743.136 13.6887C741.77 13.5949 740.739 12.4118 740.833 11.0463ZM665.112 11.5112C665.221 12.8756 664.203 14.0699 662.839 14.1785C657.53 14.6014 652.197 15.1034 646.843 15.6866C645.482 15.8348 644.259 14.8519 644.11 13.4912C643.962 12.1305 644.945 10.9072 646.306 10.759C651.708 10.1705 657.089 9.66408 662.445 9.23744C663.81 9.12875 665.004 10.1467 665.112 11.5112ZM772.944 14.1039C773.124 12.7469 774.369 11.7924 775.726 11.9718C781.142 12.688 786.491 13.4855 791.767 14.361C793.117 14.5851 794.03 15.8614 793.806 17.2117C793.582 18.562 792.306 19.475 790.955 19.2509C785.733 18.3844 780.439 17.5949 775.076 16.8858C773.719 16.7063 772.765 15.4608 772.944 14.1039ZM632.998 14.8651C633.186 16.2209 632.239 17.4722 630.883 17.6598C625.596 18.3916 620.292 19.2037 614.974 20.0981C613.625 20.3251 612.346 19.415 612.119 18.0652C611.892 16.7153 612.802 15.437 614.152 15.21C619.517 14.3076 624.869 13.4882 630.204 12.7499C631.559 12.5622 632.811 13.5092 632.998 14.8651ZM804.829 19.2341C805.099 17.8923 806.406 17.0237 807.748 17.2941C813.125 18.3777 818.416 19.5436 823.614 20.7884C824.945 21.1071 825.766 22.4446 825.447 23.7757C825.129 25.1069 823.791 25.9276 822.46 25.6089C817.32 24.3783 812.088 23.2251 806.769 22.1532C805.427 21.8828 804.558 20.5759 804.829 19.2341ZM601.129 20.0787C601.395 21.4214 600.522 22.7256 599.18 22.9919C593.953 24.0287 588.716 25.1462 583.473 26.3466C582.139 26.6521 580.81 25.8182 580.504 24.4839C580.199 23.1497 581.033 21.8204 582.367 21.5149C587.657 20.3036 592.941 19.1759 598.216 18.1299C599.558 17.8636 600.862 18.7361 601.129 20.0787ZM836.285 26.588C836.655 25.2701 838.023 24.5012 839.341 24.8708C844.638 26.3562 849.826 27.9258 854.895 29.5752C856.197 29.9987 856.909 31.3972 856.485 32.6988C856.062 34.0004 854.663 34.7123 853.361 34.2888C848.358 32.6609 843.236 31.1109 838.002 29.6435C836.684 29.2739 835.916 27.9059 836.285 26.588ZM569.631 27.1426C569.976 28.4673 569.182 29.8206 567.857 30.1653C562.688 31.5104 557.516 32.9377 552.345 34.4489C551.031 34.8328 549.655 34.079 549.271 32.7652C548.887 31.4513 549.641 30.075 550.954 29.6911C556.173 28.166 561.392 26.7257 566.609 25.3683C567.933 25.0236 569.287 25.818 569.631 27.1426ZM538.595 36.0582C539.018 37.36 538.306 38.7582 537.004 39.1812C531.934 40.8287 526.867 42.5587 521.807 44.3732C520.518 44.8351 519.099 44.1651 518.637 42.8767C518.175 41.5882 518.845 40.1692 520.134 39.7073C525.241 37.8759 530.355 36.1298 535.472 34.467C536.774 34.044 538.172 34.7564 538.595 36.0582ZM867.046 36.3925C867.527 35.1111 868.956 34.4626 870.237 34.9439C875.41 36.8872 880.439 38.9174 885.314 41.0294C886.57 41.5735 887.147 43.0328 886.602 44.2888C886.058 45.5447 884.599 46.1218 883.343 45.5777C878.546 43.4993 873.593 41.4996 868.494 39.5841C867.213 39.1027 866.564 37.6738 867.046 36.3925ZM508.155 46.8153C508.656 48.0891 508.029 49.5278 506.755 50.0287C501.786 51.9824 496.826 54.0196 491.878 56.1421C490.62 56.6816 489.163 56.0993 488.623 54.8413C488.084 53.5834 488.666 52.1262 489.924 51.5867C494.919 49.4442 499.926 47.3877 504.941 45.4157C506.215 44.9148 507.654 45.5415 508.155 46.8153ZM896.725 49.0021C897.338 47.7783 898.828 47.2832 900.051 47.8963C905.033 50.3919 909.82 52.9796 914.398 55.6523C915.58 56.3424 915.979 57.8601 915.289 59.0422C914.599 60.2243 913.081 60.6232 911.899 59.9331C907.416 57.3162 902.723 54.7787 897.831 52.3281C896.607 51.715 896.112 50.2259 896.725 49.0021ZM478.431 59.3992C479.009 60.64 478.472 62.1143 477.231 62.6922C474.799 63.825 472.371 64.979 469.946 66.1543C467.401 67.3884 464.854 68.591 462.307 69.7627C461.063 70.3347 459.591 69.7903 459.019 68.5468C458.447 67.3032 458.992 65.8315 460.235 65.2595C462.752 64.1018 465.268 62.9134 467.784 61.694C470.232 60.5075 472.683 59.3425 475.138 58.199C476.379 57.621 477.853 58.1584 478.431 59.3992ZM924.778 65.0514C925.555 63.9247 927.099 63.6414 928.225 64.4187C932.86 67.6159 937.217 70.9129 941.279 74.3C942.33 75.1767 942.472 76.7395 941.595 77.7907C940.719 78.8419 939.156 78.9835 938.105 78.1068C934.167 74.8228 929.93 71.6165 925.411 68.4987C924.284 67.7215 924.001 66.178 924.778 65.0514ZM448.291 73.221C448.812 74.4868 448.208 75.9352 446.942 76.4563C441.735 78.6001 436.527 80.6188 431.321 82.5164C430.035 82.9852 428.613 82.3228 428.144 81.0368C427.675 79.7508 428.338 78.3282 429.624 77.8594C434.766 75.9849 439.911 73.9907 445.055 71.8727C446.321 71.3517 447.77 71.9553 448.291 73.221ZM133.586 77.8798C134.031 76.5855 135.442 75.8975 136.736 76.343C141.899 78.1205 147.163 79.8354 152.521 81.4786C153.83 81.8799 154.565 83.2661 154.164 84.5747C153.763 85.8833 152.376 86.6188 151.068 86.2175C145.656 84.5577 140.338 82.8254 135.123 81.0299C133.828 80.5843 133.14 79.174 133.586 77.8798ZM417.02 84.8338C417.435 86.1381 416.715 87.5321 415.41 87.9473C410.035 89.6589 404.666 91.2454 399.305 92.7114C397.984 93.0724 396.621 92.2948 396.26 90.9745C395.899 89.6542 396.677 88.2912 397.997 87.9302C403.293 86.4821 408.597 84.9149 413.906 83.2242C415.211 82.8089 416.605 83.5296 417.02 84.8338ZM949.745 85.3605C950.735 84.415 952.304 84.4509 953.249 85.4407C957.205 89.5817 960.74 93.8344 963.821 98.1839C964.612 99.3009 964.348 100.848 963.231 101.639C962.114 102.43 960.567 102.166 959.776 101.049C956.847 96.9143 953.469 92.847 949.665 88.8645C948.72 87.8748 948.756 86.306 949.745 85.3605ZM165.434 87.8227C165.791 86.5012 167.151 85.7191 168.473 86.0757C173.76 87.5026 179.128 88.8556 184.571 90.1266C185.904 90.4378 186.732 91.7707 186.421 93.1036C186.11 94.4365 184.777 95.2647 183.444 94.9535C177.945 93.6695 172.522 92.3027 167.181 90.8612C165.86 90.5046 165.077 89.1442 165.434 87.8227ZM384.888 93.8336C385.194 95.1677 384.361 96.4975 383.027 96.8038C377.538 98.064 372.062 99.2018 366.602 100.222C365.256 100.473 363.962 99.5864 363.71 98.2409C363.459 96.8954 364.346 95.6009 365.691 95.3495C371.086 94.3416 376.496 93.2176 381.917 91.9727C383.251 91.6664 384.581 92.4996 384.888 93.8336ZM197.887 95.5734C198.152 94.2305 199.455 93.3567 200.798 93.6217C206.181 94.6839 211.628 95.6624 217.135 96.5499C218.487 96.7676 219.405 98.0396 219.188 99.391C218.97 100.742 217.698 101.661 216.347 101.443C210.781 100.547 205.277 99.5579 199.838 98.4847C198.495 98.2197 197.622 96.9163 197.887 95.5734ZM352.152 100.158C352.349 101.512 351.41 102.77 350.055 102.966C344.487 103.774 338.94 104.463 333.415 105.039C332.054 105.181 330.835 104.193 330.693 102.831C330.551 101.47 331.54 100.251 332.901 100.109C338.36 99.5399 343.842 98.8588 349.344 98.0608C350.698 97.8642 351.956 98.803 352.152 100.158ZM230.798 101.051C230.968 99.693 232.206 98.7293 233.564 98.8988C239.014 99.5789 244.516 100.167 250.066 100.656C251.429 100.776 252.437 101.978 252.317 103.342C252.197 104.705 250.994 105.713 249.631 105.593C244.021 105.099 238.459 104.505 232.95 103.817C231.592 103.648 230.629 102.409 230.798 101.051ZM319.011 103.815C319.099 105.181 318.062 106.359 316.697 106.447C311.076 106.809 305.484 107.056 299.924 107.196C298.555 107.231 297.418 106.15 297.384 104.781C297.349 103.413 298.431 102.276 299.799 102.241C305.295 102.103 310.823 101.858 316.378 101.5C317.744 101.413 318.923 102.449 319.011 103.815ZM264.019 104.156C264.088 102.789 265.253 101.737 266.62 101.807C272.109 102.086 277.638 102.266 283.205 102.34C284.574 102.358 285.668 103.482 285.65 104.85C285.632 106.219 284.508 107.314 283.139 107.296C277.51 107.221 271.918 107.04 266.368 106.757C265.001 106.688 263.949 105.523 264.019 104.156ZM968.849 111.273C970.094 110.705 971.564 111.254 972.132 112.5C973.301 115.061 974.314 117.648 975.166 120.258L970.453 121.796C969.662 119.37 968.717 116.956 967.622 114.557C967.054 113.311 967.603 111.841 968.849 111.273Z" fill="#066C9C" fill-opacity="0.44"/>
</svg>
