<svg width="54" height="35" viewBox="0 0 54 35" fill="none" xmlns="http://www.w3.org/2000/svg">
<path d="M34.2742 8.09681H34.0002C33.7263 8.09681 33.5072 8.31485 33.5072 8.5874V17.6361C33.5072 17.9086 33.7263 18.1267 34.0002 18.1267H34.2742C34.5481 18.1267 34.7672 17.9086 34.7672 17.6361V8.5874C34.7672 8.31485 34.5481 8.09681 34.2742 8.09681ZM31.7815 10.7678H31.5076C31.2337 10.7678 31.0146 10.9858 31.0146 11.2584V14.9651C31.0146 15.2376 31.2337 15.4557 31.5076 15.4557H31.7815C32.0554 15.4557 32.2746 15.2376 32.2746 14.9651V11.2584C32.2746 10.9858 32.0554 10.7678 31.7815 10.7678ZM29.2615 8.88721H28.9876C28.8506 8.88721 28.741 8.94172 28.6315 9.02348C28.5493 9.10525 28.4945 9.24152 28.4945 9.3778V16.8729C28.4945 17.0092 28.5493 17.1182 28.6315 17.2272C28.7136 17.309 28.8506 17.3635 28.9876 17.3635H29.2615C29.3984 17.3635 29.508 17.309 29.6176 17.2272C29.6997 17.1455 29.7545 17.0092 29.7545 16.8729V9.3778C29.7545 9.24152 29.6997 9.1325 29.6176 9.02348C29.508 8.94172 29.3984 8.88721 29.2615 8.88721ZM36.7942 6.48877H36.5203C36.3833 6.48877 36.2737 6.54328 36.1642 6.62504C36.082 6.70681 36.0272 6.84308 36.0272 6.97936V19.2714C36.0272 19.4076 36.082 19.5167 36.1642 19.6257C36.2464 19.7347 36.3833 19.762 36.5203 19.762H36.7942C36.9312 19.762 37.0407 19.7074 37.1503 19.6257C37.2325 19.5439 37.2872 19.4076 37.2872 19.2714V6.97936C37.2872 6.84308 37.2325 6.73406 37.1503 6.62504C37.0407 6.54328 36.9312 6.48877 36.7942 6.48877ZM26.7415 10.7678H26.4675C26.1936 10.7678 25.9745 10.9858 25.9745 11.2584V14.9651C25.9745 15.2376 26.1936 15.4557 26.4675 15.4557H26.7415C27.0154 15.4557 27.2345 15.2376 27.2345 14.9651V11.2584C27.2345 10.9858 27.0154 10.7678 26.7415 10.7678ZM46.8195 10.7678H46.5456C46.2717 10.7678 46.0526 10.9858 46.0526 11.2584V14.9651C46.0526 15.2376 46.2717 15.4557 46.5456 15.4557H46.8195C47.0935 15.4557 47.3126 15.2376 47.3126 14.9651V11.2584C47.3126 10.9858 47.0935 10.7678 46.8195 10.7678ZM39.2868 9.84113H39.0129C38.739 9.84113 38.5199 10.0592 38.5199 10.3317V15.919C38.5199 16.1915 38.739 16.4096 39.0129 16.4096H39.2868C39.5607 16.4096 39.7799 16.1915 39.7799 15.919V10.3317C39.7799 10.0592 39.5607 9.84113 39.2868 9.84113ZM49.3396 11.3947H49.0657C48.7917 11.3947 48.5726 11.6127 48.5726 11.8853V14.3382C48.5726 14.6108 48.7917 14.8288 49.0657 14.8288H49.3396C49.6135 14.8288 49.8326 14.6108 49.8326 14.3382V11.8853C49.8326 11.6127 49.6135 11.3947 49.3396 11.3947ZM44.3269 9.43231H44.053C43.916 9.43231 43.8065 9.48682 43.6969 9.56858C43.6147 9.65035 43.5599 9.78662 43.5599 9.9229V16.2733C43.5599 16.4096 43.6147 16.5186 43.6969 16.6276C43.7791 16.7094 43.916 16.7639 44.053 16.7639H44.3269C44.4639 16.7639 44.5734 16.7094 44.683 16.6276C44.7652 16.5459 44.8199 16.4096 44.8199 16.2733V9.9229C44.8199 9.78662 44.7652 9.6776 44.683 9.56858C44.5734 9.48682 44.4365 9.43231 44.3269 9.43231ZM41.8069 10.7678H41.5329C41.259 10.7678 41.0399 10.9858 41.0399 11.2584V14.9651C41.0399 15.2376 41.259 15.4557 41.5329 15.4557H41.8069C42.0808 15.4557 42.2999 15.2376 42.2999 14.9651V11.2584C42.2999 10.9858 42.0808 10.7678 41.8069 10.7678Z" fill="url(#paint0_linear_33_382)"/>
<path d="M26.1055 2.021C26.1329 2.04825 28.0503 3.1112 28.0503 3.1112L26.1055 3.71081V2.021Z" fill="#003177"/>
<path d="M28.4885 4.282L27.2833 4.06396L26.1055 5.34495L28.4885 4.282Z" fill="#00215B"/>
<path d="M26.1055 2.021L27.4203 2.5661L28.0229 3.1112L26.1055 2.021Z" fill="#000947"/>
<path d="M27.8585 1.25635L26.1055 2.01949L27.4203 2.56459L27.8585 1.25635Z" fill="#003177"/>
<path d="M28.1555 2.021L27.4159 2.5661L28.0185 3.1112L28.1555 2.021Z" fill="#000E28"/>
<path d="M27.8542 1.25635L28.1555 2.01949L27.4159 2.56459L27.8542 1.25635Z" fill="#01083A"/>
<path d="M26.982 0.984863L27.8585 1.25741L26.1055 2.02055L26.982 0.984863Z" fill="#013B7F"/>
<path d="M26.1055 2.02055L26.982 0.984863L26.1055 1.17565V2.02055Z" fill="#2A4BC4"/>
<path d="M28.4885 4.2832L28.3242 4.66477L26.1055 5.56419L28.4885 4.2832Z" fill="#021442"/>
<path d="M28.2942 4.69043L28.3216 5.56259L28.0203 4.69043H28.2942Z" fill="white"/>
<path d="M27.7468 4.90847L28.322 5.56259L28.0207 4.69043L27.7468 4.90847Z" fill="#A9B2D3"/>
<path d="M27.5564 4.99121L28.1316 6.35396L27.0634 5.04572L27.5564 4.99121Z" fill="white"/>
<path d="M28.0221 7.7164L27.0634 5.04541L28.1316 6.35365L28.0221 7.7164Z" fill="#BBC8FC"/>
<path d="M27.0655 5.04541L26.3533 5.45424L28.0242 7.7164L27.0655 5.04541Z" fill="#A9B2D3"/>
<path d="M26.1028 2.0218L24.7332 1.66748L26.1028 3.68435V2.0218Z" fill="#024282"/>
<path d="M23.6903 4.93759L24.7312 1.66699L26.1008 3.68386L23.6903 4.93759Z" fill="#19488C"/>
<path d="M24.4573 6.13623L23.6903 4.93701L26.1008 5.34584L24.4573 6.13623Z" fill="#002A68"/>
<path d="M26.1114 1.17547L24.9061 0.630371L26.1114 2.02037V1.17547Z" fill="#4B80DD"/>
<path d="M24.7333 1.66606L24.8976 0.630371L26.1029 2.02037L24.7333 1.66606Z" fill="#305AD1"/>
<path d="M22.538 1.20273L23.8528 0.630371L24.7293 1.66606L22.538 1.20273Z" fill="#003177"/>
<path d="M24.8984 0.630371H23.8575L24.7341 1.66606L24.8984 0.630371Z" fill="#4271DB"/>
<path d="M21.8903 3.11151L24.739 1.66699L23.6981 4.93759L21.8903 3.11151Z" fill="#003177"/>
<path d="M22.5477 1.20215L21.8903 3.11L24.739 1.66548L22.5477 1.20215Z" fill="#002A68"/>
<path d="M18.5988 2.80997L19.941 2.15585L17.914 0.983887L18.5988 2.80997Z" fill="#00215B"/>
<path d="M20.3792 2.89324L20.0505 2.64795L18.5988 2.81148L20.3792 2.89324Z" fill="#021442"/>
<path d="M20.434 2.42822L20.0505 2.64626L18.5988 2.80979L20.434 2.42822Z" fill="#000E28"/>
<path d="M20.5134 2.64746L20.3764 2.89276L20.0477 2.64746H20.5134Z" fill="#021442"/>
<path d="M20.4312 2.42969L20.5134 2.64773H20.0477L20.4312 2.42969Z" fill="white"/>
<path d="M20.5137 2.64773L20.4315 2.42969L20.8972 2.45694L20.5137 2.64773Z" fill="#000923"/>
<path d="M20.9022 2.97452L20.5187 2.64746L20.3817 2.89276L20.9022 2.97452Z" fill="#000923"/>
<path d="M20.9009 2.45752V2.97536L20.5175 2.6483L20.9009 2.45752Z" fill="#021442"/>
<path d="M20.9022 2.45752V2.97536L21.8883 3.11164L20.9022 2.45752Z" fill="#00215B"/>
<path d="M20.9022 2.45588L21.8883 3.11L22.5457 1.20215L20.9022 2.45588Z" fill="#003177"/>
<path d="M20.4599 0.630371L20.8982 2.45645L22.5417 1.20273L20.4599 0.630371Z" fill="#275CA8"/>
<path d="M20.4317 2.4292L20.8974 2.45645L20.4591 0.630371L20.4317 2.4292Z" fill="#244AA0"/>
<path d="M20.434 2.4292L20.4614 0.630371L17.914 0.984686" fill="#003177"/>
<path d="M20.8972 2.45672L20.4315 2.21143V2.42947L20.8972 2.45672Z" fill="#001A49"/>
<path d="M20.4373 2.21125L19.9443 2.15674L20.4373 2.42929V2.21125Z" fill="#021442"/>
<path d="M23.3091 7.71635L22.3503 9.46068L22.5421 7.28027L23.3091 7.71635Z" fill="#012551"/>
<path d="M21.451 12.6217L21.8071 11.0137L21.451 11.6678V12.6217Z" fill="#001033"/>
<path d="M23.6882 4.93506L22.5377 7.27899L23.3047 7.71507L23.6882 4.93506Z" fill="#002244"/>
<path d="M21.8851 3.11035L21.6385 5.34526L23.6929 4.93644L21.8851 3.11035Z" fill="#002A68"/>
<path d="M20.709 7.38863L21.2843 5.42627L22.5443 7.27961L20.709 7.38863Z" fill="#002A68"/>
<path d="M23.6929 4.93701L22.5425 7.28094L21.6385 5.34584L23.6929 4.93701Z" fill="#00215B"/>
<path d="M22.3525 9.46068L22.5443 7.28027L20.709 7.38929L22.3525 9.46068Z" fill="#00215B"/>
<path d="M20.9556 10.2232L20.709 7.38867L22.3525 9.46005L20.9556 10.2232Z" fill="#011B56"/>
<path d="M20.8963 2.9751L21.8824 3.11137L20.8689 3.43843L20.8963 2.9751Z" fill="#01214F"/>
<path d="M20.9022 2.97532L20.3817 2.89355L20.8748 3.43865L20.9022 2.97532Z" fill="#021442"/>
<path d="M18.5988 2.80908L20.8723 3.43595L20.3792 2.89085L18.5988 2.80908Z" fill="#002A68"/>
<path d="M21.2798 5.42654L20.8689 3.43692L21.8824 3.10986L21.2798 5.42654Z" fill="#01214F"/>
<path d="M15.2528 1.85702L18.5946 2.81095L17.9098 0.984863L15.2528 1.85702Z" fill="#003177"/>
<path d="M21.2833 5.42553L18.5988 2.80908L20.8724 3.43594L21.2833 5.42553Z" fill="#01214F"/>
<path d="M18.5946 2.81037L17.088 4.36391L15.2528 1.85645L18.5946 2.81037Z" fill="#002A68"/>
<path d="M17.0892 4.36439L15.2539 1.85693L12.8434 2.81086L17.0892 4.36439Z" fill="#003177"/>
<path d="M17.0848 4.36262L18.5914 2.80908L21.2758 5.42556L17.0848 4.36262Z" fill="#021442"/>
<path d="M18.3722 6.35485L17.0848 4.36523L21.2758 5.42818L18.3722 6.35485Z" fill="#00215B"/>
<path d="M14.3226 5.04399L12.8434 2.80908L17.0892 4.36262L14.3226 5.04399Z" fill="#002A68"/>
<path d="M26.1008 5.34517V3.68262L23.6903 4.93635L26.1008 5.34517Z" fill="#00316B"/>
<path d="M27.2833 4.06468L26.1055 3.68311V5.34566L27.2833 4.06468Z" fill="#002A68"/>
<path d="M23.3065 7.71702L24.457 6.13623L23.69 4.93701L23.3065 7.71702Z" fill="#00215B"/>
<path d="M26.1094 5.56396L24.6303 6.3271L24.4659 6.13632L26.1094 5.56396Z" fill="#021442"/>
<path d="M23.3065 7.71556L24.6213 6.32555L24.457 6.13477L23.3065 7.71556Z" fill="#001033"/>
<path d="M28.0188 3.11035L28.4844 4.28232L27.2792 4.06428L28.0188 3.11035Z" fill="#003177"/>
<path d="M26.1055 3.68222L28.0229 3.10986L27.2833 4.06379L26.1055 3.68222Z" fill="#033B7F"/>
<path d="M28.0203 3.11013L28.2395 1.99268L28.1573 2.01993L28.0203 3.11013Z" fill="#2A4BC4"/>
<path d="M27.8605 1.25635L28.244 1.99223L28.1618 2.01949L27.8605 1.25635Z" fill="#4B80DD"/>
<path d="M22.5417 1.06645L20.4599 0.630371L22.5417 1.20273V1.06645Z" fill="#72A2DD"/>
<path d="M23.8528 0.630371L22.538 1.06645V1.20273L23.8528 0.630371Z" fill="#4B80DD"/>
<path d="M27.8542 1.25635L27.4159 2.56459L27.5255 2.48282L27.8542 1.25635Z" fill="#030023"/>
<path d="M27.4159 2.56467L27.5255 2.48291L28.0185 3.10978L27.4159 2.56467Z" fill="#003177"/>
<path d="M28.486 4.28183L28.5682 4.20006L28.0203 3.10986L28.486 4.28183Z" fill="#4B80DD"/>
<path d="M28.3192 4.66499L28.5658 4.20166L28.4836 4.28342L28.3192 4.66499Z" fill="#2A4BC4"/>
<path d="M22.3503 9.46063L22.4873 9.48788L23.3091 7.71631L22.3503 9.46063Z" fill="#001033"/>
<path d="M21.7997 11.0145L22.4845 9.48819L22.3475 9.46094L21.7997 11.0145Z" fill="#021849"/>
<path d="M20.709 7.38961L18.3807 6.35392L21.2843 5.42725L20.709 7.38961Z" fill="#003177"/>
<path d="M18.3807 6.35449L20.709 7.39018L18.5999 9.6796L18.3807 6.35449Z" fill="#002A68"/>
<path d="M20.9544 10.2232L18.5988 9.67809L20.7079 7.38867L20.9544 10.2232Z" fill="#00215B"/>
<path d="M21.8042 11.0145L20.955 10.2241L22.352 9.46094L21.8042 11.0145Z" fill="#021442"/>
<path d="M21.4481 11.6677L20.955 10.2231L21.8042 11.0135L21.4481 11.6677Z" fill="#001647"/>
<path d="M18.5988 9.67871L21.4476 11.6683L20.9545 10.2238L18.5988 9.67871Z" fill="#011B56"/>
<path d="M19.5301 12.9766L18.5988 9.67871L21.4476 11.6684L19.5301 12.9766Z" fill="#00215B"/>
<path d="M21.2773 14.8847L21.4417 12.6226L19.5242 12.9769L21.2773 14.8847Z" fill="#021442"/>
<path d="M21.4417 11.6685V12.6224L19.5242 12.9767L21.4417 11.6685Z" fill="#001647"/>
<path d="M21.281 14.8847L21.9384 15.9204L21.4454 12.6226L21.281 14.8847Z" fill="#113B6D"/>
<path d="M21.4454 17.42L21.281 14.8853L21.9384 15.9209L21.4454 17.42Z" fill="#00377A"/>
<path d="M23.3959 17.965L21.9441 15.9209L21.451 17.4199L23.3959 17.965Z" fill="#19488C"/>
<path d="M22.0811 19.1652L21.451 17.4209L23.3959 17.966L22.0811 19.1652Z" fill="#002A68"/>
<path d="M23.8046 18.7265L23.3938 17.9634L22.079 19.1626L23.8046 18.7265Z" fill="#012551"/>
<path d="M23.8046 18.7285L22.079 19.1646L22.4077 20.3911L23.8046 18.7285Z" fill="#01203F"/>
<path d="M21.0673 20.3896H22.4095L22.0808 19.1631L21.0673 20.3896Z" fill="#001033"/>
<path d="M19.5242 19.4634L21.0582 20.39L22.0717 19.1636L19.5242 19.4634Z" fill="#01102B"/>
<path d="M19.4481 18.5645L19.5303 19.4639L22.0777 19.1641L19.4481 18.5645Z" fill="#01203F"/>
<path d="M21.4477 17.4209L19.4481 18.5656L22.0777 19.1652L21.4477 17.4209Z" fill="#012551"/>
<path d="M19.1219 16.2998L19.4506 18.5619L21.4501 17.4173L19.1219 16.2998Z" fill="#01203F"/>
<path d="M17.3375 17.1992L19.118 16.2998L19.4467 18.562L17.3375 17.1992Z" fill="#001133"/>
<path d="M17.3375 17.4742L19.4467 18.5644L17.3375 17.2017V17.4742Z" fill="#01203F"/>
<path d="M21.2857 14.8853L19.1219 16.3025L21.4501 17.42L21.2857 14.8853Z" fill="#012551"/>
<path d="M19.5328 12.9766L19.1219 16.3017L21.2858 14.8844L19.5328 12.9766Z" fill="#01203F"/>
<path d="M17.3335 17.2017L14.2108 19.3821L17.3335 17.4742V17.2017Z" fill="#001C33"/>
<path d="M18.6004 9.67871L19.5317 12.9766L17.0117 12.5132L18.6004 9.67871Z" fill="#01203F"/>
<path d="M19.1208 16.3011L17.0117 12.5127L19.5317 12.976L19.1208 16.3011Z" fill="#012551"/>
<path d="M17.3389 17.202L16.572 15.2124L19.1194 16.3026L17.3389 17.202Z" fill="#001630"/>
<path d="M17.0102 12.5127L16.572 15.2109L19.1194 16.3011L17.0102 12.5127Z" fill="#001C3D"/>
<path d="M23.3975 17.9634L24.0549 18.2359L23.8083 18.7265" fill="#19488C"/>
<path d="M21.451 12.6221L22.218 15.8654L21.9441 15.9199L21.451 12.6221Z" fill="#1C468E"/>
<path d="M22.213 15.8657L23.3908 17.9644L21.9391 15.9202L22.213 15.8657Z" fill="#4271DB"/>
<path d="M22.2167 15.8657L23.3945 17.9644L24.0519 18.2369L22.2167 15.8657Z" fill="#72A2DD"/>
<path d="M22.8694 16.7113L23.3077 15.9209L22.5955 16.575L22.8694 16.7113Z" fill="#A9B2D3"/>
<path d="M22.4901 16.1934L23.3119 15.9209L22.5997 16.575L22.4901 16.1934Z" fill="white"/>
<path d="M25.3636 15.6758L23.4188 17.7472L24.8979 16.9568L25.3636 15.6758Z" fill="#BBC8FC"/>
<path d="M23.4116 17.7472L23.0555 16.984L25.3564 15.6758L23.4116 17.7472Z" fill="white"/>
<path d="M23.8296 17.9903L24.8979 16.9546L23.4188 17.745L23.8296 17.9903Z" fill="#A9B2D3"/>
<path d="M18.5961 9.6796L16.076 7.88077L18.3769 6.35449L18.5961 9.6796Z" fill="#003177"/>
<path d="M17.0895 4.36426L16.076 7.88015L18.3769 6.35387L17.0895 4.36426Z" fill="#01214F"/>
<path d="M14.3232 5.04612L16.0762 7.88064L17.0897 4.36475L14.3232 5.04612Z" fill="#003177"/>
<path d="M12.8474 2.80908L12.2721 4.93493L10.7655 4.79866L12.8474 2.80908Z" fill="#00326D"/>
<path d="M14.3259 5.04399L12.2715 4.93497L12.8468 2.80908L14.3259 5.04399Z" fill="#002654"/>
<path d="M9.41876 5.945L10.761 4.80029L12.2675 4.93657L9.41876 5.945Z" fill="#01214F"/>
<path d="M12.2675 6.92663V4.93701L9.41876 5.94545L12.2675 6.92663Z" fill="#003177"/>
<path d="M14.3259 5.04408L12.2715 6.92467V4.93506L14.3259 5.04408Z" fill="#01214F"/>
<path d="M16.079 7.87993L12.2715 6.926L14.3259 5.04541L16.079 7.87993Z" fill="#01214F"/>
<path d="M16.0757 7.88086L18.5958 9.67969L15.6923 9.84322L16.0757 7.88086Z" fill="#01214F"/>
<path d="M17.0071 12.5132L15.6923 9.84224L18.5958 9.67871L17.0071 12.5132Z" fill="#01214F"/>
<path d="M16.5665 15.2109L14.2108 19.381L17.3335 17.2006L16.5665 15.2109Z" fill="#01102B"/>
<path d="M14.0243 14.4205L17.01 12.5127L16.5717 15.2109L14.0243 14.4205Z" fill="#00153A"/>
<path d="M12.8434 16.576L16.5687 15.2132L14.0213 14.4229L12.8434 16.576Z" fill="#000A3D"/>
<path d="M11.1185 19.5444L7.06453 24.2595L6.95496 23.6054L11.1185 19.5444Z" fill="#01102B"/>
<path d="M14.2119 19.3828L11.6097 21.2634L11.3358 20.9909L14.2119 19.3828Z" fill="#01203F"/>
<path d="M9.82996 23.7152L11.3365 20.9897L11.6104 21.2623L9.82996 23.7152Z" fill="#001C33"/>
<path d="M12.8434 16.5737L14.213 19.381L16.5687 15.2109L12.8434 16.5737Z" fill="#000A35"/>
<path d="M12.8457 16.5747L11.12 19.5455L14.2153 19.382L12.8457 16.5747Z" fill="#000A3D"/>
<path d="M11.3391 20.9899L11.12 19.5454L14.2153 19.3818L11.3391 20.9899Z" fill="#001033"/>
<path d="M7.06726 24.2595L9.83382 23.7144L11.1212 19.5444L7.06726 24.2595Z" fill="#001033"/>
<path d="M11.3365 20.9889L11.1174 19.5444L9.82996 23.7144L11.3365 20.9889Z" fill="#01102B"/>
<path d="M9.2586 25.2684L9.83382 23.7148L7.06726 24.2599L9.2586 25.2684Z" fill="#01102B"/>
<path d="M9.26063 25.2682L7.0693 24.2598L3.67273 25.2682H9.26063Z" fill="#001033"/>
<path d="M0.519409 20.2002L3.75162 25.2696H0.519409V20.2002Z" fill="#000E26"/>
<path d="M3.67273 25.2695L6.95974 23.6069L7.06931 24.2611L3.67273 25.2695Z" fill="#01102B"/>
<path d="M0.519409 20.2002L6.95644 23.6071L3.75162 25.2696L0.519409 20.2002Z" fill="#000A35"/>
<path d="M5.83338 19.4634L6.95644 23.6061L0.519409 20.1993L5.83338 19.4634Z" fill="#000A3D"/>
<path d="M11.1185 19.5456L5.83191 19.4639L6.95496 23.6066L11.1185 19.5456Z" fill="#001133"/>
<path d="M0.519409 10.6597L3.01193 12.9764L0.519409 14.4209V10.6597Z" fill="#003177"/>
<path d="M5.83339 19.4623L0.519409 16.437V20.1982L5.83339 19.4623Z" fill="#001133"/>
<path d="M3.01193 12.9766L0.519409 16.4379V14.4211L3.01193 12.9766Z" fill="#01214F"/>
<path d="M6.27165 15.2115L0.519409 16.4379L3.01205 12.9766L6.27165 15.2115Z" fill="#003177"/>
<path d="M5.83339 19.4642L6.27165 15.2124L0.519409 16.4389L5.83339 19.4642Z" fill="#001244"/>
<path d="M11.1185 19.5455L6.27018 15.2119L5.83191 19.4637L11.1185 19.5455Z" fill="#001738"/>
<path d="M12.8442 16.5752L6.2702 15.2124L11.1185 19.546L12.8442 16.5752Z" fill="#001F44"/>
<path d="M3.66944 9.84131L0.519409 10.659L3.01204 12.9756L3.66944 9.84131Z" fill="#01214F"/>
<path d="M6.2712 11.8037L3.0116 12.9756L3.669 9.84131L6.2712 11.8037Z" fill="#003177"/>
<path d="M6.2712 15.2111V11.8042L3.0116 12.9762L6.2712 15.2111Z" fill="#01214F"/>
<path d="M9.00935 12.9762L6.2702 11.8042V15.2111L9.00935 12.9762Z" fill="#002A68"/>
<path d="M12.8442 16.5742L9.00937 12.9766L6.2702 15.2115L12.8442 16.5742Z" fill="#003177"/>
<path d="M14.0232 14.4211L11.8866 12.9766L12.8453 16.5742L14.0232 14.4211Z" fill="#003177"/>
<path d="M9.01062 12.9766H11.8867L12.8455 16.5742L9.01062 12.9766Z" fill="#19488C"/>
<path d="M11.8866 12.9767L14.3245 11.8047L14.0231 14.4212L11.8866 12.9767Z" fill="#19488C"/>
<path d="M17.01 12.5128L14.3256 11.8042L14.0243 14.4207L17.01 12.5128Z" fill="#003472"/>
<path d="M15.6928 9.84082L14.3232 11.8032L17.0076 12.5118L15.6928 9.84082Z" fill="#003177"/>
<path d="M12.4618 11.1777L11.8866 12.9766L14.3245 11.8046L12.4618 11.1777Z" fill="#003177"/>
<path d="M9.01062 12.9783L10.7637 10.8252L11.8867 12.9783H9.01062Z" fill="#003177"/>
<path d="M6.2702 11.8069L8.32456 10.8257L9.00935 12.9788L6.2702 11.8069Z" fill="#003177"/>
<path d="M14.0243 8.80664L11.9973 10.8235L11.8055 10.3329L14.0243 8.80664Z" fill="#001033"/>
<path d="M7.56172 10.2231C7.53432 10.2231 11.8074 10.3322 11.8074 10.3322L11.9992 10.8228L7.56172 10.2231Z" fill="#000E26"/>
<path d="M7.20593 10.8228L7.56202 10.2231L11.9995 10.8228H7.20593Z" fill="#001033"/>
<path d="M4.46283 9.21533L7.5581 10.2238L7.20201 10.8234L4.46283 9.21533Z" fill="#000E26"/>
<path d="M9.42339 5.94434L7.28683 7.71591L6.82117 7.38885L9.42339 5.94434Z" fill="#4B80DD"/>
<path d="M4.62982 7.7172H7.28682L6.82116 7.39014L4.62982 7.7172Z" fill="#72A2DD"/>
<path d="M4.46283 9.21533L4.62718 7.71631L7.5581 10.2238L4.46283 9.21533Z" fill="#012551"/>
<path d="M7.28682 7.71631H4.62982L7.56073 10.2238L7.28682 7.71631Z" fill="#003177"/>
<path d="M11.8047 10.3333L7.28503 7.7168L7.55895 10.2243L11.8047 10.3333Z" fill="#00326D"/>
<path d="M12.2703 6.92552L7.28503 7.71591L9.42158 5.94434L12.2703 6.92552Z" fill="#19488C"/>
<path d="M11.7225 8.67072L7.28503 7.7168L11.8047 10.3333L11.7225 8.67072Z" fill="#003177"/>
<path d="M12.2703 6.92529L11.7225 8.66961L7.28503 7.71569L12.2703 6.92529Z" fill="#2D62C1"/>
<path d="M14.0262 8.80717L11.7253 8.6709L11.8075 10.3335L14.0262 8.80717Z" fill="#003177"/>
<path d="M12.2731 6.92529L11.7253 8.66961L14.0262 8.80589L12.2731 6.92529Z" fill="#19488C"/>
<path d="M16.079 7.87922L14.0246 8.80589L12.2715 6.92529L16.079 7.87922Z" fill="#01214F"/>
<path d="M14.021 8.80664L11.994 10.8235L15.6919 9.84233L14.021 8.80664Z" fill="#01214F"/>
<path d="M16.0787 7.88086L15.6952 9.84322L14.0243 8.80753L16.0787 7.88086Z" fill="#003177"/>
<path d="M14.3304 11.8037L12.4678 11.1768L15.7 9.84131L14.3304 11.8037Z" fill="#01214F"/>
<path d="M11.994 10.8225L15.6919 9.84131L12.4597 11.1768L11.994 10.8225Z" fill="#003177"/>
<path d="M4.46709 9.21484L3.67273 9.84171L7.20625 10.8229L4.46709 9.21484Z" fill="#00153A"/>
<path d="M6.27493 11.8032L7.20625 10.822L3.67273 9.84082L6.27493 11.8032Z" fill="#012551"/>
<path d="M7.20152 10.8257H8.32458L6.2702 11.8069L7.20152 10.8257Z" fill="#01214F"/>
<path d="M10.76 10.8252H8.32214L9.00693 12.9783L10.76 10.8252Z" fill="#002A68"/>
<path d="M12.4638 11.1795L10.7655 10.8252L11.8886 12.9783L12.4638 11.1795Z" fill="#012551"/>
<path d="M11.9981 10.8252H10.7655L12.4638 11.1795L11.9981 10.8252Z" fill="#01214F"/>
<path d="M20.4619 0.630371L17.668 0.821155L17.9145 0.984685L20.4619 0.630371Z" fill="#72A2DD"/>
<path d="M15.2528 1.85796L17.6633 0.822266L17.9098 0.985796L15.2528 1.85796Z" fill="#4B80DD"/>
<path d="M3.66944 9.84131L0.519409 10.3319V10.659L3.66944 9.84131Z" fill="#72A2DD"/>
<path d="M22.541 7.28081L21.281 5.42747L21.6371 5.3457L22.541 7.28081Z" fill="#01214F"/>
<path d="M21.8836 3.10986L21.6371 5.34477L21.281 5.42654L21.8836 3.10986Z" fill="#021442"/>
<path d="M3.97076 29.0837C4.29946 29.2472 4.57337 29.438 4.73772 29.7378C4.92947 30.0103 5.01164 30.3374 5.01164 30.719C5.01164 31.1005 4.92947 31.4276 4.73772 31.7002C4.54598 31.9727 4.29946 32.1907 3.97076 32.3543C3.64206 32.5178 3.23118 32.5723 2.76553 32.5723H1.72464V33.9896H0.519409V28.8384H2.76553C3.23118 28.8656 3.64206 28.9474 3.97076 29.0837ZM3.53249 31.4004C3.72423 31.2368 3.80641 31.0188 3.80641 30.7462C3.80641 30.4464 3.72423 30.2284 3.53249 30.0921C3.34075 29.9558 3.06683 29.8468 2.71074 29.8468H1.72464V31.6456H2.71074C3.06683 31.6184 3.34075 31.5366 3.53249 31.4004Z" fill="white"/>
<path d="M7.01387 33.745C6.5756 33.5269 6.24691 33.1999 6.00038 32.7911C5.75385 32.3822 5.64429 31.9189 5.64429 31.4283C5.64429 30.9105 5.75385 30.4744 6.00038 30.0656C6.24691 29.6567 6.5756 29.3297 7.01387 29.1116C7.45214 28.8936 7.91779 28.7573 8.46563 28.7573C9.01346 28.7573 9.47913 28.8663 9.91739 29.1116C10.3557 29.3297 10.6844 29.6567 10.9309 30.0656C11.1774 30.4744 11.3144 30.9377 11.3144 31.4283C11.3144 31.9462 11.1774 32.3822 10.9309 32.7911C10.6844 33.1999 10.3557 33.5269 9.91739 33.745C9.47913 33.963 9.01346 34.0993 8.46563 34.0993C7.91779 34.0993 7.42475 33.9903 7.01387 33.745ZM9.28738 32.8728C9.5339 32.7366 9.72565 32.5458 9.86261 32.3005C9.99957 32.0552 10.0817 31.7554 10.0817 31.4556C10.0817 31.1285 9.99957 30.856 9.86261 30.6107C9.72565 30.3654 9.5339 30.1746 9.28738 30.0383C9.04085 29.902 8.76694 29.8203 8.46563 29.8203C8.16432 29.8203 7.8904 29.902 7.64388 30.0383C7.39735 30.1746 7.20562 30.3654 7.06866 30.6107C6.9317 30.856 6.84952 31.1558 6.84952 31.4556C6.84952 31.7826 6.9317 32.0552 7.06866 32.3005C7.20562 32.5458 7.39735 32.7366 7.64388 32.8728C7.8904 33.0091 8.16432 33.0909 8.46563 33.0909C8.76694 33.0909 9.04085 33.0091 9.28738 32.8728Z" fill="white"/>
<path d="M19.8318 28.8657L18.1335 34.0169H16.8461L15.6956 30.5283L14.5178 34.0169H13.2304L11.5321 28.8657H12.7647L13.9426 32.4906L15.1752 28.8657H16.2982L17.4761 32.5179L18.6813 28.8657H19.8318Z" fill="white"/>
<path d="M24.5155 33.063V34.0169H20.5163V28.8657H24.4333V29.8196H21.7215V30.9371H24.132V31.8638H21.7215V33.063H24.5155Z" fill="white"/>
<path d="M28.7575 34.0169L27.7714 32.5724H27.7166H26.6757V34.0169H25.4705V28.8657H27.7166C28.1822 28.8657 28.5657 28.9475 28.9218 29.0838C29.2505 29.2473 29.5244 29.4381 29.6888 29.7379C29.8805 30.0104 29.9627 30.3375 29.9627 30.7191C29.9627 31.1006 29.8805 31.4277 29.6888 31.7002C29.497 31.9728 29.2505 32.1908 28.8944 32.3271L30.0449 33.9897H28.7575V34.0169ZM28.4561 30.0649C28.2644 29.9014 27.9905 29.8196 27.6344 29.8196H26.6483V31.6185H27.6344C27.9905 31.6185 28.2644 31.5367 28.4561 31.3732C28.6479 31.2097 28.7301 30.9916 28.7301 30.7191C28.7575 30.4465 28.6479 30.2285 28.4561 30.0649Z" fill="white"/>
<path d="M34.9268 33.063V34.0169H30.9276V28.8657H34.8172V29.8196H32.1055V30.9371H34.5159V31.8638H32.1055V33.063H34.9268Z" fill="white"/>
<path d="M48.0097 31.8093C48.174 32.0273 48.2562 32.2999 48.2562 32.6269C48.2562 33.0902 48.0919 33.4173 47.7358 33.6626C47.3797 33.9079 46.8592 34.0169 46.2018 34.0169H43.5175V28.8657H46.0375C46.6675 28.8657 47.1605 28.9747 47.4892 29.22C47.8179 29.4653 47.9823 29.7924 47.9823 30.2012C47.9823 30.4465 47.9275 30.6646 47.7906 30.8826C47.681 31.0734 47.4893 31.2369 47.2975 31.3459C47.6262 31.4277 47.8453 31.5912 48.0097 31.8093ZM44.6953 29.7651V30.9916H45.8731C46.1745 30.9916 46.3936 30.9371 46.5579 30.8281C46.7223 30.7191 46.7771 30.5828 46.7771 30.3647C46.7771 30.1467 46.6949 30.0104 46.5579 29.9014C46.3936 29.7924 46.1745 29.7379 45.8731 29.7379H44.6953V29.7651ZM46.8319 32.954C46.9962 32.845 47.0784 32.6814 47.0784 32.4634C47.0784 32.0273 46.7497 31.8365 46.1197 31.8365H44.7227V33.1175H46.1197C46.421 33.1175 46.6675 33.063 46.8319 32.954Z" fill="white"/>
<path d="M35.877 28.8657H38.2327C38.8079 28.8657 39.301 28.9747 39.7118 29.1928C40.1501 29.4108 40.4788 29.7106 40.7253 30.0922C40.9719 30.4738 41.0814 30.9371 41.0814 31.4549C41.0814 31.9728 40.9719 32.4089 40.7253 32.8177C40.4788 33.2265 40.1501 33.4991 39.7118 33.7171C39.2736 33.9352 38.7805 34.0442 38.2327 34.0442H35.877V28.8657ZM38.1505 33.0357C38.671 33.0357 39.0818 32.8995 39.3832 32.5997C39.6845 32.2998 39.8488 31.9183 39.8488 31.4277C39.8488 30.9371 39.6845 30.5555 39.3832 30.2557C39.0818 29.9559 38.671 29.8196 38.1505 29.8196H37.0549V33.0085H38.1505V33.0357Z" fill="white"/>
<path d="M51.5533 32.1908V34.0169H50.348V32.1636L48.3484 28.8657H49.6085L50.9781 31.1551L52.3476 28.8657H53.5255L51.5533 32.1908Z" fill="white"/>
<defs>
<linearGradient id="paint0_linear_33_382" x1="25.9914" y1="13.1117" x2="49.8218" y2="13.1117" gradientUnits="userSpaceOnUse">
<stop stop-color="#2D62C1"/>
<stop offset="0.1244" stop-color="#3366C2"/>
<stop offset="0.2866" stop-color="#4371C3"/>
<stop offset="0.4697" stop-color="#5E83C6"/>
<stop offset="0.6683" stop-color="#849DCA"/>
<stop offset="0.8769" stop-color="#B3BDD0"/>
<stop offset="1" stop-color="#D3D3D3"/>
</linearGradient>
</defs>
</svg>
