<svg xmlns="http://www.w3.org/2000/svg" width="93" height="20" viewBox="0 0 93 20" fill="none">
<path d="M8.98392 2.15904C9.13803 1.68472 9.80907 1.68472 9.96319 2.15904L11.4385 6.6997C11.5075 6.91183 11.7051 7.05545 11.9282 7.05545H16.7025C17.2012 7.05545 17.4086 7.69364 17.0051 7.98679L13.1426 10.7931C12.9622 10.9242 12.8867 11.1565 12.9556 11.3687L14.4309 15.9093C14.585 16.3837 14.0422 16.7781 13.6387 16.4849L9.77616 13.6787C9.59572 13.5476 9.35138 13.5476 9.17094 13.6787L5.30842 16.4849C4.90494 16.7781 4.36206 16.3837 4.51618 15.9093L5.99153 11.3687C6.06045 11.1565 5.98494 10.9242 5.8045 10.7931L1.94199 7.98679C1.5385 7.69364 1.74587 7.05545 2.2446 7.05545H7.01893C7.24197 7.05545 7.43964 6.91183 7.50857 6.6997L8.98392 2.15904Z" fill="#FDB813"/>
<path d="M27.5179 2.15904C27.6721 1.68472 28.3431 1.68472 28.4972 2.15904L29.9726 6.6997C30.0415 6.91183 30.2392 7.05545 30.4622 7.05545H35.2365C35.7353 7.05545 35.9426 7.69364 35.5391 7.98679L31.6766 10.7931C31.4962 10.9242 31.4207 11.1565 31.4896 11.3687L32.965 15.9093C33.1191 16.3837 32.5762 16.7781 32.1727 16.4849L28.3102 13.6787C28.1297 13.5476 27.8854 13.5476 27.705 13.6787L23.8425 16.4849C23.439 16.7781 22.8961 16.3837 23.0502 15.9093L24.5256 11.3687C24.5945 11.1565 24.519 10.9242 24.3385 10.7931L20.476 7.98679C20.0725 7.69364 20.2799 7.05545 20.7786 7.05545H25.553C25.776 7.05545 25.9737 6.91183 26.0426 6.6997L27.5179 2.15904Z" fill="#FDB813"/>
<path d="M46.052 2.15904C46.2061 1.68472 46.8771 1.68472 47.0312 2.15904L48.5066 6.6997C48.5755 6.91183 48.7732 7.05545 48.9962 7.05545H53.7706C54.2693 7.05545 54.4767 7.69364 54.0732 7.98679L50.2107 10.7931C50.0302 10.9242 49.9547 11.1565 50.0236 11.3687L51.499 15.9093C51.6531 16.3837 51.1102 16.7781 50.7067 16.4849L46.8442 13.6787C46.6638 13.5476 46.4194 13.5476 46.239 13.6787L42.3765 16.4849C41.973 16.7781 41.4301 16.3837 41.5842 15.9093L43.0596 11.3687C43.1285 11.1565 43.053 10.9242 42.8726 10.7931L39.01 7.98679C38.6066 7.69364 38.8139 7.05545 39.3127 7.05545H44.087C44.31 7.05545 44.5077 6.91183 44.5766 6.6997L46.052 2.15904Z" fill="#FDB813"/>
<path d="M64.586 2.15904C64.7401 1.68472 65.4112 1.68472 65.5653 2.15904L67.0406 6.6997C67.1095 6.91183 67.3072 7.05545 67.5303 7.05545H72.3046C72.8033 7.05545 73.0107 7.69364 72.6072 7.98679L68.7447 10.7931C68.5642 10.9242 68.4887 11.1565 68.5577 11.3687L70.033 15.9093C70.1871 16.3837 69.6442 16.7781 69.2408 16.4849L65.3782 13.6787C65.1978 13.5476 64.9535 13.5476 64.773 13.6787L60.9105 16.4849C60.507 16.7781 59.9641 16.3837 60.1183 15.9093L61.5936 11.3687C61.6625 11.1565 61.587 10.9242 61.4066 10.7931L57.5441 7.98679C57.1406 7.69364 57.3479 7.05545 57.8467 7.05545H62.621C62.8441 7.05545 63.0417 6.91183 63.1106 6.6997L64.586 2.15904Z" fill="#FDB813"/>
<path d="M83.12 2.15904C83.2741 1.68472 83.9452 1.68472 84.0993 2.15904L85.5746 6.6997C85.6436 6.91183 85.8412 7.05545 86.0643 7.05545H90.8386C91.3373 7.05545 91.5447 7.69364 91.1412 7.98679L87.2787 10.7931C87.0983 10.9242 87.0228 11.1565 87.0917 11.3687L88.567 15.9093C88.7212 16.3837 88.1783 16.7781 87.7748 16.4849L83.9123 13.6787C83.7318 13.5476 83.4875 13.5476 83.307 13.6787L79.4445 16.4849C79.041 16.7781 78.4982 16.3837 78.6523 15.9093L80.1276 11.3687C80.1966 11.1565 80.1211 10.9242 79.9406 10.7931L76.0781 7.98679C75.6746 7.69364 75.882 7.05545 76.3807 7.05545H81.155C81.3781 7.05545 81.5758 6.91183 81.6447 6.6997L83.12 2.15904Z" fill="#FDB813"/>
</svg>