<svg width="80" height="80" viewBox="0 0 80 80" fill="none" xmlns="http://www.w3.org/2000/svg">
<circle cx="40.3498" cy="39.7946" r="38.8971" fill="#09364B" stroke="#164D66"/>
<mask id="mask0_2062_17" style="mask-type:luminance" maskUnits="userSpaceOnUse" x="18" y="19" width="45" height="41">
<path d="M18.623 19.49H62.0772V59.51H18.623V19.49Z" fill="white"/>
</mask>
<g mask="url(#mask0_2062_17)">
<path d="M44.2931 59.1705V59.1301V50.5644C44.436 50.8717 44.6219 51.0576 44.851 51.125C45.1367 51.2113 45.188 51.1978 45.3281 51.1978C45.9777 51.1978 46.506 50.6722 46.506 50.02V44.1388C46.506 42.74 45.3739 41.6052 43.9777 41.6052H37.447C36.0509 41.6052 34.9188 42.7399 34.9188 44.1388V50.0686C34.9188 50.489 35.1533 50.8718 35.5252 51.0631C35.8055 51.206 36.0212 51.2734 36.4632 51.1251C36.6681 51.0577 36.8567 50.8718 37.0238 50.5645V59.1301C37.0238 59.1436 37.0238 59.1571 37.0265 59.1706H32.0375C27.3719 59.1706 23.5712 58.893 23.5712 54.2948V42.6993H20.884C19.9676 42.6993 19.1455 42.1495 18.7951 41.3139C18.4448 40.473 18.6388 39.5081 19.283 38.8666L37.1505 21.1232C38.005 20.2742 39.1424 19.8052 40.3499 19.8052C41.5574 19.8052 42.6948 20.2742 43.5492 21.1232C46.506 24.0584 48.7215 26.2605 50.2012 27.7294C50.309 27.8372 50.6055 28.131 50.6702 28.1957C50.7106 28.2361 50.7322 27.945 50.7322 27.3224C50.8427 25.7726 52.1283 24.5463 53.7186 24.5463H53.7348C55.395 24.5463 56.74 25.8832 56.74 27.53V33.7265C56.74 33.8909 56.7185 34.0338 56.6915 34.1793L61.4137 38.8665C62.0633 39.508 62.2547 40.4729 61.9043 41.3139C61.5539 42.1494 60.7292 42.6993 59.8128 42.6993H56.7401V54.2947C56.7401 58.8175 52.7161 59.1705 47.9585 59.1705L44.2931 59.1705ZM41.3445 59.1705H39.9752V59.1301V52.2678H41.3445V59.1301V59.1705ZM40.7111 40.6778C42.3768 40.6778 43.7244 39.3302 43.7244 37.6644C43.7244 36.0014 42.3768 34.6538 40.7111 34.6538C39.048 34.6538 37.7004 36.0014 37.7004 37.6644C37.7004 39.3302 39.048 40.6778 40.7111 40.6778Z" fill="#FDB813"/>
</g>
</svg>
